<?xml version="1.0" encoding="UTF-8"?>
<!DOCTYPE svg PUBLIC "-//W3C//DTD SVG 1.1//EN" "http://www.w3.org/Graphics/SVG/1.1/DTD/svg11.dtd">
<!-- Creator: CorelDRAW -->
<svg xmlns="http://www.w3.org/2000/svg" xml:space="preserve" width="297mm" height="210mm" style="shape-rendering:geometricPrecision; text-rendering:geometricPrecision; image-rendering:optimizeQuality; fill-rule:evenodd; clip-rule:evenodd"
viewBox="0 0 297 210"
 xmlns:xlink="http://www.w3.org/1999/xlink">
 <defs>
  <style type="text/css">
   <![CDATA[
    .str2 {stroke:#2F3133;stroke-width:0.1}
    .str1 {stroke:black;stroke-width:0.1;stroke-opacity:0.501961}
    .str0 {stroke:black;stroke-width:0.1}
    .str3 {stroke:black;stroke-width:0.5}
    .fil6 {fill:none}
    .fil0 {fill:white}
    .fil5 {fill:#1F1A17;fill-rule:nonzero}
    .fil3 {fill:#C2C1C1;fill-rule:nonzero}
    .fil4 {fill:white;fill-rule:nonzero}
    .fil2 {fill:black;fill-rule:nonzero}
    .fil1 {fill:white;fill-rule:nonzero;fill-opacity:0.501961}
   ]]>
  </style>
 </defs>
 <g id="Plan_x0020_1">
  <metadata id="CorelCorpID_0Corel-Layer"/>
  <path class="fil0 str0" d="M133.379 171.826c-0.1637,0.4102 -0.1413,0.8422 -0.2793,1.2596 -0.1432,0.4335 -0.4823,0.1531 -0.6984,0.5225 -0.128,0.2187 -0.5994,-0.0833 -0.6145,0.2053 -0.0177,0.3391 0.0838,0.7359 0.0838,1.101 0,0.4289 0.0779,0.8734 -0.2514,1.2037 -0.3145,0.3156 0.1178,1.6347 -0.5121,1.1663 -0.3416,-0.2541 -0.0809,0.4441 -0.1769,0.6625 -0.191,0.191 -0.5377,0.825 -0.6704,1.0824 -0.1651,0.3205 -0.4988,0.368 -0.6146,0.5878 -0.0748,0.1418 0.0361,0.4385 -0.1862,0.4385 -0.3456,0 -0.3666,0.0792 -0.4935,0.4479 -0.1742,0.5064 -0.6717,0.696 -0.987,1.0917 -0.4635,0.5815 -0.6803,0.9134 -0.9963,1.5862 -0.1202,0.2558 -0.2865,0.0927 -0.4469,0.4572 -0.0969,0.22 -0.3806,0.271 -0.5028,0.5878 -0.0492,0.4492 -0.7629,0.3933 -0.8287,0.6439 -0.1253,0.4776 0.0554,0.3691 -0.4283,0.7184 -0.4413,0.3188 -0.9435,1.5353 -1.2477,2.0434 -0.364,0.6077 -0.8606,-0.1397 -0.9498,0.2426 -0.0799,0.3427 -0.1574,0.4662 -0.3445,0.7651 -0.3652,0.5831 -1.3099,1.2121 -1.8622,1.5956 -0.269,0.1867 -0.4419,-0.2842 -0.3818,-0.5132 0.0375,-0.1433 0.2893,-0.025 0.3073,-0.1866 0.0197,-0.1777 -0.0865,-0.2401 0.0093,-0.4572 0.1506,-0.341 0.4488,-0.6694 0.6052,-0.9984 0.2195,-0.4614 0.6735,-0.9014 0.8473,-1.3249 0.1096,-0.2672 0.4345,-0.3393 0.4935,-0.5319 0.0853,-0.278 -0.0355,-0.5424 0.2607,-0.6905 0.3561,-0.1779 0.4842,-0.1487 0.4842,-0.6345 0.1631,-0.1193 0.1449,-0.2538 0.2514,-0.4012 0.1213,-0.1681 0.312,-0.2306 0.4283,-0.4199 0.1274,-0.2076 0.0589,-0.5137 0.2887,-0.6811l0.7635 -1.5302c0.3108,-0.623 0.7356,-0.159 0.7356,-1.0171 0,-0.8116 1.0762,-0.8538 1.2198,-1.5955 0.13,-0.6711 0.5684,-1.1366 1.0056,-1.6982 0.3006,-0.2549 0.6737,-0.4866 0.8752,-0.8491 0.1977,-0.3559 0.0853,-0.3522 0.4842,-0.5318 0.2528,-0.1139 0.0404,-0.3803 0.1862,-0.5599 0.3033,-0.3734 0.7179,-0.2326 0.7542,-0.8491 0.0175,-0.2969 0.298,-0.5448 0.298,-0.7464 0,-0.2212 -0.1763,-0.4793 0.0931,-0.5972 0.4902,-0.2147 0.1567,-0.1698 0.4283,-0.5971 0.3449,-0.5424 0.0416,-0.4293 0.6797,-0.4293 0.0048,0.0144 -0.0003,0.0094 0.0187,0.0094 0,-0.187 -0.4528,-0.3967 -0.2328,-0.6158 -0.0632,-0.3703 0.1748,-0.4939 0.5028,-0.6252 0.2649,-0.1061 0.1451,-0.2942 0.0652,-0.5039 -0.1345,-0.3534 0.1088,-1.3577 0.6424,-1.1943 0.2319,0.071 0.2869,0.5225 0.6053,0.5225 0.3127,0 0.2924,-0.3377 0.5307,-0.4572 0.1042,-0.0523 0.0586,0.406 0.0466,0.4666 -0.0561,0.2811 -0.4127,0.4249 -0.4563,0.7091 -0.0481,0.314 0.0466,0.5646 0.0466,0.8677l0.121 0.252zm10.652 -23.8959c0,-0.1499 -0.1136,-0.2491 -0.1396,-0.3545 -0.1362,0 -0.2507,0.0559 -0.3818,0.0559 -0.2352,0 -1.2696,-0.2596 -1.3408,0.1027 -0.092,0.0368 -0.1243,0.2773 -0.2794,0.3359 -0.2645,0.1001 -0.4655,0.0836 -0.4655,0.4385 0,0.2123 0.0811,0.6114 0.3538,0.5879 0.5662,-0.0487 1.0121,-0.2269 1.3688,-0.6625 0.0986,-0.1205 0.4124,-0.2751 0.5586,-0.3173 0.089,-0.0256 0.3111,-0.028 0.3632,-0.0933l-0.0373 -0.0933zm-40.0899 -128.497c-0.0098,-0.0148 -0.1195,-0.0903 -0.1396,-0.1008 -0.0742,-0.0595 -0.1632,-0.0583 -0.255,-0.4179 -0.1438,-0.5634 -0.5486,-0.6346 -0.8846,-0.1306 -0.5408,0.8112 -0.1752,0.9782 -1.108,0.3546 -0.4075,-0.2724 -0.4813,0.3696 -0.54,0.6344 -0.0957,0.4316 0.1291,0.6911 -0.5959,0.4293 -0.5129,-0.1851 -0.6313,0.4158 -0.6704,0.7557 -0.092,0.7979 -0.553,0.5868 -0.9777,0.9798 -0.6629,0.6135 -0.3368,0.6401 -1.3222,1.0077 -1.2504,0.4664 -0.9094,-1.6404 -1.5736,-1.1011 -0.3893,0.3161 -0.3507,1.2745 -0.5586,1.7542 -0.1746,0.4028 -0.225,0.8057 -0.2607,1.2503 -0.0586,0.7284 -1.4199,0.1762 -1.1732,0.9797 0.0856,0.2791 0.1143,0.7838 -0.2887,0.7838 -0.3345,0 -1.7917,-1.8796 -1.4618,-0.5878 0.0442,0.1733 0.2417,1.1663 -0.0373,1.1663 -0.7085,0 -0.6487,-0.4487 -0.9311,-0.933 -0.6709,-1.1506 -0.8317,-0.007 -1.4897,-0.1773 -1.1183,-0.2895 -0.0525,0.8037 0.1024,0.9797 0.4115,0.4676 -0.9635,0.4642 -0.9684,0.4665 -0.2608,0.1271 -0.4192,0.311 -0.6052,0.5132 -0.4673,0.5079 -0.8289,-0.65 -0.9777,-0.9424 -0.4619,-0.9074 -1.2362,1.1804 -1.3035,1.5116 -0.1523,0.749 -0.1168,0.7479 -0.8101,0.6345 -0.1942,-0.0317 -0.2109,-0.7156 -0.3631,-0.8678 -0.2401,-0.2401 -0.5476,0.1028 -0.4004,0.3732 0.2263,0.4155 0.529,1.4786 -0.2886,1.269 -0.4103,-0.1051 -0.6288,-0.2892 -1.108,-0.2892 -0.1958,0 -0.8809,0.7356 -1.1174,0.4385 -0.1745,-0.2193 -0.0313,-1.0374 -0.2607,-1.2036 -0.4773,-0.3458 -0.6908,0.9216 -0.7076,1.1663 -0.0204,0.2972 -0.2344,0.6276 -0.3352,0.9144 -0.3388,0.9643 -1.533,-0.3624 -1.4153,1.3436 0.0608,0.8839 -0.0952,1.3304 -0.3352,2.0621 -0.1806,0.5476 -0.6036,1.2726 -1.2663,0.8771 -0.2104,-0.1055 -0.3434,0.0274 -0.4376,0.1306 -0.1106,0.1211 -0.4354,0.3777 -0.5866,0.3079l-0.2421 -0.112c-0.0655,-0.0302 -0.2214,-0.1384 -0.2328,-0.1772 -0.2252,-0.7629 -1.5119,-0.0418 -0.7914,0.4385 0.3094,0.2062 1.3252,0.9112 1.1266,1.3623 -0.2448,0.5559 -0.9411,-0.1507 -1.2291,-0.2333 -0.2701,-0.0774 -0.9887,0.0005 -1.0149,0.3826 -0.0164,0.2398 0.0152,0.9822 -0.3631,0.905 -0.1934,-0.0394 -0.3446,-0.1928 -0.4842,-0.2426 -0.0238,-0.0085 -0.1239,-0.1253 -0.1303,-0.1492 -0.3338,-1.2392 -1.4269,0.0622 -1.825,0.5971 -0.4915,0.6604 -1.4594,0.4154 -2.0764,0.9704 -0.4461,0.4013 0.1005,0.9984 -0.8473,0.9984 -0.6019,0 -0.4159,0.5781 -0.2141,0.9051 0.2845,0.4609 -0.0321,0.789 -0.4749,1.0637 -0.2563,0.159 -0.49,0.1559 -0.6518,0.4478 -0.4353,0.7849 -0.5562,1.1778 -1.2756,0.3639 -0.4168,-0.4716 -0.5352,0.4298 -0.5494,0.6345 -0.0205,0.2941 -0.8752,0.3147 -0.8752,1.0357 0,0.7193 -0.7356,0.5949 -0.7356,0.0187 0,-0.1678 0.0032,-0.7465 -0.2141,-0.7465 -0.6263,0 -0.714,0.223 -0.8846,0.7185 -0.252,0.7318 -0.0285,0.8376 -0.8659,1.129 -0.2539,0.0883 -0.6232,0.5084 -0.7542,0.7371 -0.104,0.1815 -0.8629,0.3231 -1.0708,0.3919 -0.5965,0.1976 -0.7631,0.1139 -0.8845,0.7278 -0.114,0.5768 1.6017,1.1083 2.0205,1.4836 0.8264,0.7407 0.0895,1.2481 0.0279,2.0807 -0.018,0.244 -0.1346,1.1799 -0.5494,0.7651 -0.3942,-0.3942 -0.3968,-0.9914 -0.9311,-1.3063 -0.3527,-0.2079 -0.8676,-0.1746 -1.3035,-0.3172 -0.4456,-0.1458 -1.0252,-0.35 -1.4712,-0.1679 -0.0771,0.0315 -0.1919,0.3938 -0.2421,0.4665 -0.1152,0.1665 -0.2,0.3745 -0.2979,0.5505 -0.1739,0.3124 -0.042,0.6062 -0.0373,0.9237 0.0052,0.3448 0.6113,0.9433 0.2514,1.1011l-0.5959 0.2612c-0.2776,0.1217 -0.5649,0.1479 -0.8473,0.2893 -0.4406,0.2207 -0.9829,0.161 -1.4153,0.3639 -0.8649,0.4058 0.2543,1.9161 -0.0651,2.5379 -0.1099,0.2141 -1.2734,1.0411 -1.4526,1.1757 -1.0865,0.8161 -1.7272,1.7576 -2.365,2.9671 -0.4682,0.8879 -2.6181,-0.0053 -2.8492,1.5209 -0.0989,0.6537 0.0546,1.3526 -0.0093,1.9595 -0.132,1.2544 -3.8629,1.9477 -2.3091,3.3217 0.232,0.2051 -0.4402,1.2835 -0.6611,1.4462 -0.6925,0.5102 -1.0548,0.208 -1.7319,0.4666 -0.3324,0.1269 -0.4584,0.4706 -0.8752,0.5411 -0.3656,0.0618 -0.7049,0.153 -1.0429,0.2706 -0.4937,0.1718 -0.4199,0.7302 -0.6983,1.0264 -0.4857,0.5166 -0.7731,1.5236 -0.8101,2.23 -0.0355,0.6768 -0.2813,1.1598 -0.419,1.7915 -0.0971,0.4454 -0.5392,0.586 -0.7262,0.9611 -0.4244,0.8509 -0.5637,0.3202 -1.2384,0.6345 -0.2595,0.1209 -0.625,0.8799 -0.6983,1.157 -0.0913,0.3452 0.2377,0.4281 -0.2142,0.7651 -0.5993,0.4469 -0.6764,1.6609 -1.7505,1.6609 -0.6071,0 -0.4518,0.7578 -0.8752,1.0636 -0.5604,0.4048 -0.996,0.8914 -1.3781,1.4556 -0.1844,0.2722 -0.0931,0.3644 -0.0931,0.6998 0,0.2975 -0.2159,0.4124 -0.3631,0.4666 -0.7797,0.2871 -2.0669,2.1372 -2.7561,2.7805 -1.1011,1.0277 -2.3312,0.3572 -3.4823,1.213 -0.7068,0.5254 -1.3773,1.5158 -1.555,2.3607 -0.218,1.0364 0.2975,2.8081 -0.8566,3.387 -0.303,0.1519 -0.7686,0.4332 -1.0242,0.6718 -0.4223,0.3941 -0.8133,0.7556 -0.987,1.325 -0.2351,0.7706 -0.6611,1.0125 -1.2477,1.5302 -0.8427,0.7437 -1.7669,0.6933 -2.7468,1.017 -0.0483,0.016 -0.0886,0.0301 -0.1229,0.0433l0 0 0.8414 0.465c1.3443,0.5639 0.5362,2.1583 1.8312,2.3936 0.4927,0.3111 0.6359,-0.8935 1.2306,-0.4666 0.1331,0.0956 0.2917,0.1773 0.4749,0.1773 0.1536,0 0.4257,-0.0096 0.4749,0.14 0.0372,0.1128 -0.0801,0.3265 0.0186,0.4105 0.1096,0.0931 0.5306,0.2892 0.6425,0.1773 0.1278,-0.1278 0.282,-1.1592 0.6517,-0.8118 0.0991,0.093 0.2204,0.3578 0.4097,0.2986 0.1724,-0.054 0.3871,-0.4479 0.5494,-0.4479 0.277,-0.143 0.2818,-0.2155 0.419,0.0934 0.0615,0.1383 0.3147,0.4144 0.3259,0.4945 0.1831,0 0.2132,-0.0029 0.391,-0.028 0.0107,-0.0761 0.1405,-0.3682 0.1583,-0.4945 0.0588,-0.0084 0.0977,0 0.1583,0 0.0477,0.3381 0.2739,0.3732 0.5866,0.3732 0.3632,0 0.3683,-0.0067 0.6797,-0.112 0,-0.7699 1.5113,-0.9767 0.8566,-1.8101 -0.1416,-0.1802 0.846,-1.8052 1.0615,-1.8288 0.1224,-0.0475 0.3656,-0.0503 0.3166,-0.2426 -0.0556,-0.2177 -0.2177,-0.4124 0,-0.5879 0.2117,-0.1705 0.3631,0.0526 0.3631,0.2613 0.1765,0.0436 0.131,-0.1213 0.1024,-0.2706 -0.0642,-0.3355 0.0684,-0.3125 0.2235,-0.5225 0.2009,-0.2718 0.27,-0.143 0.27,0.1213 0.0978,0 0.3636,0.0196 0.419,0.1213 0.1059,0.1946 0.3736,0.0387 0.3911,-0.1213 0.1041,-0.0391 0.123,-0.2271 0.2328,-0.2519 0.0974,-0.0221 0.1997,0.0186 0.2886,0.0186 0.0196,-0.059 0.1381,-0.238 0.2328,-0.1959 0.124,0.0553 0.1785,0.3249 0.2607,0.3452 0.3268,0.0546 0.7428,0.1381 1.0521,0.0187 0.681,-0.2631 0.2729,0.4105 0.7263,0.4105 0.1327,0 0.2831,-0.3711 0.3538,-0.4665 0.0365,-0.0492 0.3669,-0.3472 0.4004,-0.1773 0.3322,0 -0.1015,0.268 0.568,0.0093 0.3692,-0.1429 0.4206,0.3329 0.6425,0.4666 0.1823,0.1006 0.3293,0.0576 0.4934,0.1119 0,0.0775 -0.0446,0.31 0,0.3546 0.0859,0.0859 0.2913,0.0595 0.3259,0.112 0.0746,0 0.0466,0.3322 0.0466,0.4012 0,0.2901 0.0739,0.5878 0.4004,0.5878 0.0974,0 0.3232,-0.0025 0.3445,0.1493 0.0609,0 0.0582,0.0933 0.121,0.0933 0.0733,0.2578 0.6777,0.2249 0.8939,0.2613 0.0033,0.024 0.0139,0.0321 0.0186,0.056 0.0308,0.0076 0.1316,0.4036 0.1583,0.4665 0.2372,0.1829 0.3125,0.0657 0.5307,-0.056 0.2196,-0.1226 0.5879,0.1959 0.7077,0.1959 0.1754,0 0.0828,0.2706 -0.0745,0.2706 -0.1552,0 -0.3725,-0.0362 -0.3725,0.1773 0.3231,0 0.4072,-0.0851 0.5028,0.2053 0.0795,0.2413 0.2012,0.2276 0.3352,0.3826 0.1531,0.1772 0.1362,0.2542 -0.0558,0.3918 -0.4492,0.3222 0.4671,0.1866 0.5586,0.2426 0.3003,0.1836 -0.0681,0.5077 -0.1769,0.6532 -0.057,0.0764 -0.2455,0.6063 0.0279,0.4385 0.2388,-0.1467 0.493,-0.3205 0.7542,-0.4199 0.3648,-0.139 0.101,0.4666 0.3911,0.4666 0.6201,0.3327 0.22,-0.0467 0.5773,-0.0467 0.0282,0.2008 0.0931,0.4026 0.0931,0.6345 -0.0364,0.009 -0.3445,0.284 -0.3445,0.3359 0.0319,0.0159 0.1079,0.0796 0.1397,0.084 0.0139,0.0992 0.0186,0.153 0.0186,0.2892 0.1715,0.0433 0.0297,0.0618 0.2421,-0.0279 0.4058,-0.1713 0.7341,1.1383 1.1546,1.1383 0.0033,-0.024 0.0314,-0.08 0.0558,-0.084 0.006,-0.0555 0.0415,-0.0412 0.0466,-0.0933 0.2251,-0.0644 0.2833,-0.028 0.54,-0.028 0.0221,0.0679 0.1903,0.3175 0.1956,0.3546 0.0524,0.0104 -0.077,0.3211 -0.0559,0.4105 0.0147,0.0619 0.3363,0.4106 0.391,0.4106 0.1563,0 0.3211,-0.0653 0.4935,-0.0653 0.319,0.1856 0.2943,0.3459 0.2235,0.6438 -0.0739,0.3113 0.162,0.2328 0.2328,0.4479 0.0701,0.2127 0.2882,0.9968 0.6331,0.5878 0.2124,-0.2518 0.3266,-0.0268 0.4935,0.1213 0.183,0.1625 0.1311,0.2239 0.149,0.4852 0.0119,0.1735 0.2728,0.3825 0.4469,0.3825 0.3598,0 0.3206,-0.446 0.6704,-0.2612 0.1022,0.0539 0.0652,0.2416 0.0652,0.3452 0,0.2461 0.0391,0.2373 0.2049,0.3826 0.2487,0.1246 0.2723,0.1425 0.391,0.3732 0.0475,0.0922 0.0406,0.4028 0.0466,0.5319 0.0041,0.0903 0.1251,0.025 0.1396,0 0.1105,-0.1914 0.335,-0.5368 0.5866,-0.2613 0.1512,0.1654 -0.1227,0.3871 0.1211,0.6065 0.2274,0.2045 0.6523,0.1398 0.9125,0.3452 0.2466,0.1948 -0.0558,0.7371 0.2327,0.7371 0.0039,0.0196 0.0028,0.0201 0.0187,0.028 0,0.2662 -0.0543,0.6776 0.2327,0.8211 0.5833,0.1696 0.3166,0.3444 0.3166,0.7372 0,0.2268 0.3818,0.0486 0.3818,0.5038 0,0.2907 -0.0374,0.4791 0.1862,0.6625 0.1743,0.1428 0.2349,-0.2239 0.3911,-0.2239 0.2125,0 0.1478,0.4273 0.2886,0.4665 0.1717,0.0477 0.3523,-0.2053 0.5959,-0.2053 0.0369,0.2246 -0.0823,0.6373 0.1304,0.8118 0.2648,0.2174 0.3315,0.028 0.6331,0.028 0,0.0917 0.0373,0.1735 0.0373,0.2426 0.2547,0 0.2886,0.0305 0.2886,0.2706 0,0.1912 0.2323,0.3665 0.2793,0.6251 0.0326,0.179 0.2137,0.5964 0.3818,0.7651 0.1825,0.3899 0.1505,0.9092 0.4656,1.1757 0.3603,0.3046 0.362,0.6681 0.4283,1.1383 0.0291,0 1.0243,0.4457 1.0335,0.5505 0.0412,0.4704 -0.0955,0.1961 0.2793,0.4852 0.5496,0.4238 0.2514,1.7721 0.2514,2.4447l-0.0279 0.6251 0.3352 -0.0373c0.3448,-0.2222 1.4089,-0.9097 1.6015,-1.2223 0.3151,-0.5111 0.6763,-0.4825 1.136,-0.8211 0.3874,-0.2855 0.7458,-0.8041 1.08,-1.1383 0.4508,-0.4508 1.0498,0.3109 1.4153,-0.4386 0.1475,-0.3023 0.27,-0.5462 0.27,-0.9144 0,-0.163 -0.2433,-0.8618 -0.1862,-0.9051 0.0887,-0.2515 0.1517,-0.4772 0.3073,-0.6904 0.1602,-0.2193 0.9044,-0.3457 1.0335,-0.028 0.1088,0.2676 0.0533,0.6169 0.3073,0.7744 0.483,0.2997 0.8484,0.4684 1.2384,0.8584 0.1533,0.1533 0.2794,0.3827 0.3258,0.5785 0.0911,0.3847 0.1826,0.4467 0.5215,0.6718 0.7612,0.2463 1.063,0.3294 1.1639,1.2317 0.0934,0.0132 0.7989,0.4968 0.9124,0.5878 0.4501,0.3607 0.8519,0.7616 0.9963,1.353 0.1646,0.6746 -0.0892,1.0271 0.3352,1.6235 0.2987,0.1896 0.7084,0.7166 1.0522,0.7651 0.0184,0.1314 0.0838,0.3136 0.0838,0.4946 0.2601,0.0643 0.6223,1.7998 0.9125,1.8474 0.0631,0.5769 1.8039,0.7604 2.1415,1.3716 0.4493,0.1018 0.7619,0.6439 1.3222,0.6439 0.6389,0 1.3603,-0.204 1.5643,-0.8211 0.1429,-0.4326 0.4922,-0.2669 0.6238,0.0559 0.1244,0.3049 0.7169,0.7755 0.7169,1.0451 0.0711,0.2017 0.4162,0.5308 0.4284,0.6904 0.0193,0.253 0.1287,0.55 0.1769,0.7931 0.6897,0 1.2406,0.3787 1.7411,0.7372 0.2593,0.1856 0.4579,0.5251 0.7542,0.6998 0.3135,0.1847 1.1491,-0.0041 1.5084,-0.084 0.1618,-0.0524 1.0593,-0.0226 1.257,0.028 0.5303,0.1357 0.9833,0.4385 1.5457,0.4385 0.6303,0 1.0701,0.585 1.6853,0.6718 0.1878,-0.0424 0.5535,0.2429 0.7076,0.3546 0.2671,0.1934 0.67,0.1663 0.8566,0.4665l0.6146 0.9891c0,0.2098 0.1292,0.4636 0.1489,0.6438 0.089,0.0144 0.2436,0.0653 0.3725,0.0653 0.0633,0.4648 0.4911,1.1334 0.8752,1.409 0.4299,0.3087 -0.7323,0.6638 -0.7728,0.9517 -0.06,0.0171 -0.0559,0.1469 -0.0559,0.2053 0.217,0 0.3676,0.1977 0.5122,0.2332 0.0967,0.3934 0.5548,0.4983 0.8286,0.7745 0.4526,0.0774 0.7216,0.5634 1.0801,0.8024 1.0639,0.7091 1.9842,1.4636 2.9423,2.286 0.4364,0.1193 1.1751,0.7084 1.4619,1.0357 0.4581,0.523 1.1047,0.7241 1.5922,1.213 0.3607,0.3616 0.6111,0.061 0.7914,-0.1866 0.1573,-0.2159 0.7079,-0.4662 0.8566,-0.056 0.3991,0.3518 0.2586,0.5972 0.9032,0.5972 0.3601,0 0.717,0.0148 0.5866,0.4105 -0.0501,0.1523 -0.1337,0.7899 0.1769,0.6625 0.4426,-0.1817 0.1834,0.0647 0.4563,0.1586 0.193,0.0665 0.3651,-0.0813 0.4841,0.112 0.2001,0.3252 0.4918,0.3114 0.6053,0.7558 0.1327,0.52 0.9116,-0.4258 0.8193,0.8211 -0.0289,0.3906 0.3166,0.0509 0.3166,0.4105 0,0.084 0.177,0.5414 0.27,0.5879l0.4133 0.2446c0.1676,0.0991 0.3612,0.0316 0.5354,0.0933 0.3042,0.1077 0.5676,0.243 0.9032,0.2893 0.1367,0.0189 0.2942,0.2787 0.3725,0.3965 0.0665,0.1002 0.2567,0.1399 0.2653,0.2613 0.0062,0.0882 -0.405,0.021 -0.405,0.3779 0,0.2576 0.2857,0.5144 0.2095,0.7465 -0.0662,0.2107 0.2903,0.599 0.3771,0.8165 0.1527,0.0417 0.0742,0.3407 0.3352,0.4525 0.0196,0.1404 -0.0797,0.2848 -0.0466,0.4852 0.2172,0.0872 0.4067,0.0198 0.4423,0.3453 0.1138,0.0488 0.1564,0.4491 0.1351,0.5739 -0.0506,0.2971 -0.0049,0.438 0.1629,0.6718 0.1043,0.0576 0.3805,0.2188 0.4283,0.3126 0.0729,0.1427 -0.031,0.1898 0.1443,0.2986 0.2071,0.1284 0.3084,0.4666 0.0373,0.5878 -0.2378,0.1064 0.5367,0.9195 0.3119,1.2597 -0.125,0.1893 -0.2067,0.5121 -0.149,0.7372 0.0636,0.2486 0.5216,0.2148 0.5354,0.2986 0.0914,0.0151 0,0.4182 0,0.4945 0.1383,0.1891 0.1966,0.3673 0.4004,0.4666 0.1566,0.0762 0.2316,0.0467 0.298,0.2333 0.0578,0.1621 0.2905,0.3453 0.4004,0.4805l0.2048 0.252c0.1141,0.1403 0.2616,0.1908 0.4051,0.2892 0.2993,0.1782 0.4054,0.2232 0.7868,0.1633 0.2455,-0.0386 1.1127,-0.367 1.1127,0.112 0,0.0905 -0.0361,0.1721 -0.0326,0.2659 0.0067,0.1746 0.076,0.3539 0.1071,0.5272 0.0379,0.2105 0.1858,0.3415 0.2327,0.5319 0.2782,0.4541 0.7264,0.8468 1.1407,1.1944 0.3277,0.2751 0.5151,-0.3092 0.6844,-0.196 0.0932,0.0622 0.1765,0.1849 0.2607,0.2333 0.0579,0.0334 0.0974,0.0849 0.1583,0.1166 0.0958,0.05 0.2609,0.0437 0.3259,0.1307 0.2103,0 0.5637,0.2353 0.6937,0.3779 0.0996,0.1094 0.3728,0.3882 0.54,0.3406 0.2875,-0.0817 0.7381,-0.7437 0.9451,-0.1167 0.1441,0.4362 0.2231,0.7028 0.7496,0.7559 0.089,-0.0189 0.1303,0.0226 0.2048,0.0559 0.0858,0.0383 0.1371,0.1286 0.1909,0.2053 0.0618,0.0881 0.2817,0.2768 0.3495,0.3612l0 0c0.1545,-0.6282 1.3221,-0.7091 1.7971,-0.5505 0.4351,0.1454 0.4978,-0.26 0.5587,-0.5599 0.0787,-0.3869 0.9477,-0.4534 1.2663,-0.5691 0.8813,-0.3707 0.6611,-0.5438 0.6611,-1.4183 0,-0.5948 -0.1715,-0.8399 0.0559,-1.4369 0.756,-1.9838 3.79,-0.9336 4.5997,-2.7619 0.1333,-0.3296 0.5609,-0.9704 -0.1117,-0.9704 -1.3849,0 -0.9795,-0.5586 -0.5215,-1.3996 0.1084,-0.199 0.0599,-0.6609 0.2887,-0.7371 0.2985,-0.0995 0.4199,-1.1877 0.8007,-1.2317 0.2017,-0.0232 0.0371,0.2894 0.2049,0.2706 0.3616,-0.0404 0.4201,-0.5615 0.5028,-0.8117 0.0512,-0.1552 0.0932,-0.6428 0.27,-0.6625 0.3138,-0.0351 0.5656,-0.1769 0.9404,-0.2706 0.3801,-0.0949 0.6289,-0.5236 0.9219,-0.5972 0,0.4598 -0.1441,0.6651 -0.3725,1.0357 -0.4508,0.7316 -0.4892,1.8068 -0.987,2.5473 -0.2108,0.3135 -0.2312,0.6133 -0.2141,0.9797 0.0316,0.6786 0.4432,0.7158 0.7542,1.2037 0.2963,0.3919 0.4383,0.857 0.7449,1.2036 0.4996,0.565 1.137,1.0939 1.3222,1.8475 0.1373,0.5586 0.2271,2.3655 -0.0932,2.8459l-0.2514 0.9517c-0.1763,0.6678 -0.6351,1.1182 -0.838,1.7448 -0.167,0.5161 -0.4992,0.7299 -0.7169,1.1664 -0.2951,0.5914 -0.3909,1.5085 -0.7077,2.09 -0.1258,0.2311 -0.4842,0.4236 -0.4842,0.6905 0,0.4234 -0.2049,0.6433 -0.4841,0.9237l-0.2049 0.3173c-0.1981,0.3068 -0.4798,0.6154 -0.6983,0.9237 -0.4317,0.6088 -0.6271,0.5998 -1.3315,0.7091 -0.2976,0.0462 -0.608,-0.008 -0.8567,-0.1959 -0.8344,-0.6297 -1.4396,-1.1699 -1.9833,-2.0901 -0.2669,-0.4519 -0.7542,-0.8356 -0.7542,-1.4556 0,-0.2117 -0.1055,-0.4709 0.0466,-0.6438 0.0829,-0.0941 0.3538,-0.5065 0.3538,-0.6438 -0.3506,0 -0.9133,0.9959 -1.0708,1.2783 -0.2644,0.4742 -0.6958,1.3172 -1.2942,1.129 -0.0857,-0.1664 -0.2113,-0.3329 -0.3538,-0.4478 -0.18,-0.145 -0.1411,-0.5095 -0.4004,-0.6159 -0.9647,-0.3958 -0.9727,2.9673 -1.1639,3.4804l0.1024 0.3732c0,0.6802 0.0248,1.1349 -0.2142,1.7915 -0.1659,0.4561 -0.6953,1.116 -1.0428,1.4649 -0.5975,0.5997 -1.1877,2.2526 -2.1323,1.3809 -0.4771,-0.4403 -0.2048,-0.743 -0.2048,-1.2689 -0.1839,0 -0.238,0.2445 -0.2794,0.3919 0,0.4093 -1.5569,2.5309 -1.8436,2.3513 -0.3248,-0.2033 -0.4313,0.4356 -0.5028,0.6251l-0.5214 1.381c-0.064,0.1695 -0.5088,1.4141 -0.3911,1.4929 0,2.5673 2.2046,4.5874 0.298,7.5952 -0.1827,0.2881 -0.4557,-0.1307 -0.5959,-0.1307 0,-0.1231 0.2213,-0.2726 -0.0094,-0.2426 -0.1273,0.0166 -0.2897,-0.0954 -0.3445,-0.056 -0.2781,0.2004 -0.3905,0.7447 -0.4097,1.0731 -0.012,0.2045 -0.159,-0.2157 -0.2621,-0.6219l0 0c-0.0375,0.8195 0.0522,1.5732 0.0522,2.3847 0,0.3611 -0.0512,0.7078 -0.0512,1.0731 0.2748,-0.0362 2.0347,-0.0599 2.1555,0.1493 0.0766,0.1325 0.0242,0.2982 0.0559,0.4432 0.0566,0.2581 0.0856,0.5907 0.2468,0.8025 0.0882,0.1158 0.243,0.1746 0.3724,0.2239l0.5518 0.2146 0 0c0.8266,-0.7138 1.7757,-1.293 2.6517,-2.0102 1.1241,-0.6902 1.8722,-1.9013 2.8678,-2.7992l3.6314 -3.2751c0.4983,-0.2092 0.9069,-1.0113 1.2849,-1.4089l2.244 -2.3606 2.6165 -2.7713c0.3551,-0.9496 1.373,-1.7164 1.8157,-2.7245l1.7784 -4.0495c0.3211,-0.3804 0.3876,-0.9763 0.5494,-1.4369 0.3089,-0.8789 0.8915,-1.6663 1.1266,-2.5846 0.2631,-1.0281 0.7183,-2.0157 0.9963,-3.0605 -0.1746,-0.6042 0.3643,-2.3223 0.5773,-2.9205 0.4501,-1.2634 0.7615,-2.6887 1.2943,-3.9096 0.2678,-0.94 0.8808,-1.9056 1.3222,-2.7898 0.249,-0.4987 0.6155,-1.1171 0.9683,-1.5489 0.4167,-0.5102 0.9242,-1.6046 1.4433,-1.9501 0.5264,-0.3018 0.865,-1.1153 1.3687,-1.5116 0.4902,-0.3858 0.6056,-0.411 1.136,-0.2799 0,0.2802 0.277,0.2205 0.1955,-0.0467 -0.0912,-0.2992 -0.2949,-0.1442 -0.2793,-0.6531l0.0465 -1.5209c0.0066,-0.2154 0.0652,-0.3895 0.0652,-0.5972 0,-0.5657 -0.5543,0.5824 -0.6983,0.7651 -0.1642,0.2081 -0.5116,0.5114 -0.7263,0.6812 -0.4266,0.3372 -0.2014,-0.2801 -0.0745,-0.5132 0.3008,-0.5521 -0.0179,-1.0006 0.7635,-1.241 0.3331,-0.1024 0.6963,-0.33 1.0243,-0.4759 0.5773,-0.2567 0.0251,-0.2488 -0.2235,-0.2985 -0.206,-0.0412 -0.2148,-0.3021 -0.4563,-0.1866 -0.6541,0.3127 -1.4161,0.7469 -1.9274,1.2596 -0.2496,0.0441 -0.5133,0.3644 -0.7262,0.4945 -0.2805,0.1716 -0.6705,-0.0891 -0.6705,-0.4199 0.2389,0 0.5464,0.1497 0.7356,-0.0653 0.132,-0.15 -0.084,-0.2612 0.2607,-0.2612 0.2763,0 -0.0146,-0.6905 -0.1955,-0.6905 -0.0682,0 -0.7636,0.3358 -0.8287,0.4012 -0.4493,0.451 0.2928,-1.0868 0.27,-1.3156 -0.0081,-0.0823 -0.1914,-0.1573 -0.1583,-0.2426 0.0508,-0.1312 0.5494,0.1283 0.5494,-0.084 0,-0.5355 -0.1203,-0.457 0.4004,-0.7184 0.2482,-0.1245 1.2756,-0.3902 1.2756,-0.6905 0,-0.0987 0.0442,-0.2719 0.1769,-0.224 0.2695,0.0972 -0.0977,0.252 0.3446,0.252 0.2416,0 0.3795,0.2239 0.4841,0.2239 0,-0.4748 -0.9054,-1.1766 -1.3594,-1.3156 -0.2128,-0.0652 -0.7872,-0.2092 -0.8101,-0.4945 -0.0238,-0.2974 -0.3232,-0.4292 -0.5959,-0.4292 0.0356,0.144 0.3748,0.5554 -0.0838,0.5225 -0.1309,-0.0093 -0.097,-0.5661 -0.27,-0.5879 -0.0882,-0.2737 -0.0745,-0.3341 -0.0745,-0.6251 0,-0.2673 0.2834,-0.4152 0.3445,-0.168 0.0175,0.0044 0.0901,0.081 0.0931,0.0933 0.2437,0 0.2006,-0.3296 0.1862,-0.5318 -0.0264,-0.3702 -0.0278,-0.3184 0.3073,-0.4012 0.0286,-0.1165 -0.0987,-0.2564 -0.1769,-0.3453 -0.2049,-0.2327 0.0043,-1.4042 0.2607,-1.5955 0.8431,-0.6288 1.5353,-1.2033 2.5513,-1.5956 0.2208,-0.0522 0.7246,0.1847 0.5587,-0.2239 -0.1228,-0.3027 0.0154,-0.4072 0.2234,-0.6158 0.1309,-0.1313 0.1305,-0.3532 0.0559,-0.5039 -0.0339,-0.0683 0.0412,-0.2338 0.0652,-0.3079 0.1253,-0.3873 -0.5536,0.3146 -0.866,0.1866 -0.3332,-0.1366 -0.3166,-0.431 -0.3166,-0.7558 0,-0.206 -0.1489,-0.3377 -0.1489,-0.5038 0,-0.1934 0.3093,-0.7138 0.5121,-0.7465 0.393,-0.0633 0.7914,0.0905 1.1825,0.168 0.1178,0.4763 -0.3442,0.8658 -0.2142,1.2783 0.0762,0.2416 0.3539,0.9328 0.3539,1.129 -0.496,0.1848 0.0168,0.4154 -0.2607,0.6065 -0.1634,0.1126 -0.2075,0.035 -0.1863,0.2706 0.0054,0.0599 0.1033,0.3104 0.1676,0.3266 0.1855,0.5606 0.5505,-0.6381 0.5866,-0.7372 0.2713,-0.7447 0.2406,-1.3436 0.2049,-2.146 -0.0362,-0.8156 0.0652,-1.5833 0.0652,-2.3887 0.1045,-0.5588 0.0916,-1.1226 0.2327,-1.6702 0.192,-0.7455 0.7665,-1.86 1.2664,-2.4726 0.124,-0.1521 0.3096,-0.0573 0.391,-0.1493 0.1104,-0.125 -0.1296,-0.4573 0.3259,-0.6158 0.1291,-0.0449 0.552,-0.0022 0.5959,0.1306 0.3533,0 0.1763,-0.9368 0.5122,-0.4945 0.1528,0.2011 0.1489,0.6214 0.1489,0.8771l0.0373 0.0093c0.3892,-0.5817 1.1662,-1.6269 1.9181,-1.6888 0.3277,0.0374 0.8108,0.5176 1.1918,0.1866 0.4928,-0.428 1.2931,-0.2053 1.9088,-0.2053 0.1833,0 0.7436,0.1611 0.3445,-0.1773 -0.7923,-0.672 -0.0155,-2.6207 0.2794,-3.331 0.2725,-0.6565 1.0255,-0.0739 1.2477,-0.5412 0.1508,-0.317 1.1768,-0.4144 1.5456,-0.5785 0.4332,0 0.6703,-0.0671 1.0429,-0.2333 0.322,-0.1435 -0.0546,-0.3741 -0.1211,-0.5785 -0.035,-0.1075 -0.4774,-0.006 -0.6145,-0.0746 -0.1367,-0.0685 -0.2625,-0.2353 -0.3631,-0.3359 -0.1028,-0.1028 -0.1999,-0.0535 -0.1304,-0.28 0.0255,-0.0834 -0.044,-0.3953 0,-0.4105 0.0295,-0.0101 0.3822,0.2384 0.4469,0.2613 0.3786,0.1338 -0.0767,-0.4462 -0.121,-0.5039 -0.1601,-0.209 -0.2235,-0.8563 -0.2235,-1.129 0,-0.3578 -0.3647,-0.8634 -0.1583,-1.1943 0.0491,-0.4292 0.3788,-1.0641 0.6891,-1.353 0.1985,-0.1847 0.9412,-0.7626 1.1732,-0.2986 0.2704,0.0547 0.9396,0.0604 1.2011,-0.028 0,-0.2961 -0.4283,-0.4709 -0.4283,-0.8864 0,-0.5512 -0.2886,-1.1389 -0.2886,-1.6422 0,-0.3844 -0.2059,-1.6689 0.0558,-1.9314 0.0106,-0.3689 0.1543,-0.9014 0.2701,-1.2597 0.1036,-0.3202 0.1723,-0.7086 0.54,-0.8304 0.1853,-0.0614 0.4698,0.0653 0.6704,0.0653 0.4517,0 0.419,0.2892 0.419,0.6718 0,0.4417 -0.2148,0.8584 0.0186,1.297 0.1373,0.2753 0.3465,0.4569 0.3632,0.7744 0.0177,0.3385 0.168,0.6573 0.149,0.9704 -0.018,0.2951 -0.5919,0.184 -0.7915,0.2333 0,0.1353 0.8118,0.1532 0.8659,0.3452 0.0687,0.2439 -0.1078,0.4076 -0.0186,0.6812 0.2235,0 0.1131,-1.0067 0.1024,-1.1757l-0.1396 -2.1834c-0.0557,-0.872 -0.2421,-1.688 -0.2421,-2.5752 -0.1041,-1.2233 0.6201,-2.7126 1.1546,-3.7883 0.2914,-0.5866 2.4954,-2.1868 2.4954,-0.8304 -0.0372,0.0121 0.24,0.4847 0.5586,0.1026 0.3373,-0.4042 -0.1472,-0.7656 0.4656,-1.2503 0.8802,-0.696 -0.7343,-0.605 -1.2198,-0.2239 -0.8367,0.657 -0.9838,-0.4571 -1.2104,-1.0637 0,-0.2821 -0.0199,-0.7643 -0.1024,-1.0171 -0.2242,0 -0.5035,0.8864 -0.8194,0.8864 0,-0.4573 -0.2118,-0.6293 -0.6425,-0.7371 -0.339,-0.0849 -0.4738,-0.3444 -0.568,-0.6531 -0.2834,-0.9291 0.6611,-0.2803 0.6611,-0.7465 0,-0.1025 -0.4507,0.0559 -0.5587,0.0187 -0.108,-0.0371 0.1665,-0.2928 0.1397,-0.4012 -0.1339,0 -0.8473,0.2557 -0.8473,-0.0654 0,-0.4511 0.298,-0.7642 0.298,-1.1663 0.2577,-0.5004 -0.6029,-0.3703 -0.2235,-0.6998 0.6378,-0.5538 0.2213,-0.8396 0.3911,-1.5302 0.0652,-0.2656 0.0186,-0.6234 0.0186,-0.9051 0,-0.1724 -0.0158,-0.3517 0.0931,-0.4852 0.0433,-0.053 0.2144,-0.2065 0.2235,-0.2519 0.1161,-0.0287 -0.1191,-0.3711 -0.1397,-0.4386 -0.0316,-0.1039 -0.1232,-0.4368 0.0745,-0.4572 0.1226,-0.0127 0.1052,0.196 0.2048,0.196 0.1081,0 0.3166,-0.2192 0.3166,0.0093 0,0.1946 -0.1436,0.4892 0.0186,0.6345 0.6148,0.5511 0.5885,-0.9051 1.0336,-0.9051 0.0464,0.1889 -0.1553,1.1085 -0.2328,1.325l-0.3073 0.8584c-0.0905,0.2529 -0.3586,0.1568 -0.3352,0.5785 0.0134,0.2426 0.3507,0.5612 0.5587,0.6718 0.3318,0.1763 0.2187,0.6967 0.2979,0.9891 0.0317,0.1093 0.028,0.1026 0.028,0.1866 -0.0336,0.0083 -0.4069,0.1301 -0.4097,0.1586 -0.0322,0.3237 0.9097,0.1452 1.1453,0.3079 0.1949,0.1345 -0.1458,0.5496 0.3538,0.7185 0,0.0825 -0.3509,0.2856 -0.0373,0.3825 0.2321,0.0718 0.5161,0.0235 0.6146,0.2986 0.0612,0.1711 0.0394,0.1954 0.1397,0.3546 0.0506,0.0805 0.2074,0.2127 0.2327,0.2892 0.0059,-0.0014 0.3371,-0.916 0.5494,-0.6065 0.0535,0.0779 0.141,0.3784 0.27,0.3359 0.0608,-0.0201 0.0772,-0.2134 0.0931,-0.2705 0.0221,-0.0797 0.1174,-0.1616 0.1304,-0.2147 0.2132,0 0.6147,0.0973 0.6797,0.3453 0.0552,0.2104 -0.1476,0.5681 0.2049,0.5971 0.1987,0.0188 0.3082,-0.3066 0.4934,-0.2052 0.6383,0.3492 0.0594,1.3268 -0.1582,1.7168 -0.2012,0.3608 -0.2874,0.3502 -0.0559,0.6998 0.0974,0.1472 -0.2018,0.5835 -0.1304,0.8025 0.3984,0 0.576,-0.326 1.015,0.0093 0.711,0.5429 1.6935,1.3623 2.6257,1.3623l0 -0.0187c-1.0642,-0.2632 -1.078,-0.667 -1.1173,-1.6329 -0.0394,-0.9663 0.5127,-1.2099 1.2384,-1.6142 0.911,-0.1761 1.5165,0.3919 2.365,0.3919 0.0042,-0.017 0.0016,-0.0144 0.0186,-0.0186 0.0603,-0.1849 -0.4739,-0.4031 -0.3072,-0.7372 0.0469,-0.0942 0.1835,-0.607 0.2048,-0.6158 0.2547,-0.1047 0.5714,0.2281 0.8846,0.2426 0.1376,0.0064 0.2734,0.1509 0.3631,0.2333 0.121,0.1113 0.4553,-0.0497 0.5866,-0.0933 0.2271,-0.006 1.2198,0.0271 1.2198,-0.308 0,-0.1772 -0.1749,-0.3262 -0.2142,-0.5038 -0.0624,-0.2813 0.0317,-1.8473 0.3445,-1.9128 0.2581,-0.0541 0.8002,-0.2 1.0429,-0.1773 0.2342,0.022 0.4915,1.1481 0.7076,1.381 0.2843,0.3062 0.8457,0.2109 0.8194,0.7184l-0.1024 1.9688c-0.0147,0.2836 -0.1536,0.6975 -0.3073,0.9331 -0.2183,0.3344 -0.1544,0.7735 -0.2514,1.1383 0.1811,0.7039 0.023,1.1368 -0.2048,1.7075 -0.7558,0.1066 -2.3233,-0.6734 -1.9181,-1.6702 0.1338,-0.3292 0.3215,-0.2674 0.568,-0.4199 0.2395,-0.1483 -0.497,-0.4306 -0.6332,-0.5785 -0.162,-0.1761 -0.4113,-0.6743 -0.6145,-0.7557 0,-0.2875 -0.3068,0.0714 -0.3259,0.1493 -0.6658,0 -0.6344,0.5687 -0.419,1.0077 0.091,0.1854 0.3515,0.2758 0.4283,0.5132 0.2324,0.7176 0.2371,1.5559 0.27,2.3326 0.0438,1.0323 0.2983,1.896 0.2142,3.0045 -0.0737,0.8049 -0.0514,1.7125 -0.2328,2.4913 -0.0964,0.4136 -0.173,0.8595 -0.3818,1.241 -0.1221,0.2229 -0.226,0.5297 -0.3073,0.7744 -0.1161,0.3496 -0.3792,0.519 -0.5959,0.7838 -0.3586,0.2134 -0.6807,0.3633 -1.0708,0.4759 -1.2481,0.3603 -1.7846,1.7164 -3.1192,1.8288 -0.3121,0.0908 -0.5674,-0.1403 -0.8008,-0.0933 -0.066,0.2674 0.0698,0.299 0.149,0.5411 0.1432,0.437 -0.0975,0.7952 -0.0093,1.241 0.107,0.5413 -0.0461,1.3109 -0.2607,1.8008 -0.1249,0.2849 -0.3853,0.4917 -0.7077,0.4292 -0.3425,-0.0665 -0.6319,0.2791 -0.9032,0.3639 -0.5927,0.3821 -1.1432,1.1444 -1.8715,1.1104 -0.3832,-0.0179 -0.9661,-0.6503 -1.0522,-0.9984l-0.0465 0 -0.0093 0.0093c-0.2505,1.2745 -0.028,2.2121 -0.028,3.471 0,0.5541 0.2469,1.0243 0.2049,1.5863l-0.1676 2.2393c-0.372,1.1921 -0.8156,2.0522 -1.4246,3.1538 -0.2474,0.4477 -0.6849,1.0037 -1.2198,1.101 -0.5368,0.0976 -0.6766,0.6714 -1.2384,0.8491 -0.4516,0.2426 -1.1851,0.3527 -1.5736,-0.0373 -0.4173,-0.4191 -0.2573,-0.8177 -0.419,-1.3063 -0.1482,0.0741 -0.4134,0.8527 -0.4842,1.0357 -0.0642,0.1657 -0.4283,0.6572 -0.4283,0.7558 0.1528,0 0.2783,-0.1493 0.4656,-0.1493 0,0.3756 -0.5972,0.6582 -0.3166,1.101 0.1329,0.2096 0.4097,0.9051 0.4097,1.1477 -0.1435,-0.0289 -0.6273,-0.5773 -0.689,-0.7278 -0.2112,-0.5144 -0.2031,-1.1008 -0.7077,-0.2799 -0.3263,0.5307 -0.7928,0.957 -1.0522,1.5115 -0.0612,0.3076 -0.1605,0.5724 -0.3259,0.8398 -0.1073,0.1733 -0.2676,0.2825 -0.3538,0.4665 -0.265,0.5659 -0.9175,1.0867 -1.3501,1.5582 -0.7115,0.742 -1.2826,1.2317 -2.3744,1.2317 -0.8922,0 -1.4851,0.0786 -2.2626,0.3359 0.2701,0 0.385,0.1189 0.5773,0.2053 0.1818,0.0818 0.3653,-0.1084 0.5308,-0.1493 0.1554,-0.0385 0.053,0.1933 0.0186,0.2519 -0.1447,0.2467 -0.5153,0.1633 -0.5494,0.5878 -0.048,0.5965 -0.5826,0.2904 -0.7821,0.6905 -0.1602,0.3211 -0.7239,0.8311 -1.1174,0.5692 -0.9219,-0.2885 -1.5352,-0.8204 -2.3278,-1.3716 -0.2927,-0.2036 -1.0009,-0.1606 -1.3873,-0.2893 -0.4164,-0.1388 -0.6117,0.3515 -0.9312,0.4572l0 0.0187c-0.0464,0.0114 -0.1955,0.1796 -0.1955,0.2239 0.2722,0.092 0.1117,0.3612 0.1117,0.5599 0,0.5017 1.5481,1.1945 1.6667,1.9594 0.1071,0.6914 0.3051,0.5205 -0.27,0.9891 -0.2083,0.1697 -0.7986,0.2619 -0.5028,0.7557 0.5967,0.6936 0.0778,2.3554 -0.2421,3.0418 -0.2275,0.4884 -0.5412,0.6821 -0.4748,1.2783 0.0191,0.1717 0.104,0.8479 0.1955,0.9704 0.1813,-0.548 0.0937,-1.3067 0.568,-1.7821 0.283,-0.2838 0.6248,-0.6123 0.838,-0.9517 0.8572,-1.3651 2.0222,-2.4864 3.0168,-3.7323l1.406 -1.185c0.5431,-0.4577 1.2467,-0.7189 1.8343,-1.185 0.7026,-0.5575 1.4572,-1.1721 2.3092,-1.4556 0.7176,-0.2694 1.5262,-0.6314 2.1043,-1.157 0.8601,-0.7816 1.8757,-0.9007 2.6071,-1.6329 0.4224,-0.4234 0.9566,-0.9028 1.4526,-1.2223 0.7503,-0.8544 1.7113,-1.5227 2.5233,-2.342l1.3408 -1.3529 0.7263 -0.6905c0.2104,-0.2 0.5077,-0.6839 0.7263,-0.7838 0.215,-0.4817 0.8282,-1.1821 1.2011,-1.5862 1.8599,-2.0153 3.8113,-4.2549 5.8847,-6.0369 0.5088,-0.4371 1.1531,-1.4136 1.5084,-2.0155 0.2975,-0.504 1.3466,-2.7307 1.7598,-2.9671 0.0396,-0.2758 0.5184,-0.9069 0.6611,-1.213 1.1477,-2.4633 4.0818,-7.6254 6.0523,-9.6946 0.5132,-0.5391 0.7427,-1.3677 1.257,-1.8848 0.608,-1.0379 1.1199,-2.2175 1.5457,-3.3683 0.3978,-1.0754 0.5613,-2.2664 0.9684,-3.3404 0.3211,-2.5782 2.1413,-6.094 3.082,-8.6309 0.1711,-0.4617 0.5036,-0.8981 0.5866,-1.3903 0.108,-0.641 0.4846,-1.4261 0.7728,-2.0061 0.2209,-0.4447 0.5336,-1.6542 0.9032,-1.9314 2.4874,-4.2011 4.7108,-8.0785 7.1735,-11.761l0 0c-0.0646,-0.0908 -0.5849,-0.2141 -0.6923,-0.2202 -0.1303,-0.0073 -0.2032,-0.1973 -0.2794,-0.28 -0.2346,-0.255 -0.5781,-0.0098 -0.8287,-0.2612 -0.1549,-0.1553 -0.361,-0.2146 -0.5866,-0.2146 -0.3531,0 -0.5441,-0.2113 -0.7914,-0.4293 -0.4921,-0.3127 -0.2822,-0.9386 -0.6611,-1.2783 -0.2485,-0.2227 -0.962,-0.2028 -1.3036,-0.3079 -0.2496,-0.0767 -0.6485,-0.3743 -0.8474,-0.1866 -0.1333,0.1259 -0.1297,0.2885 -0.27,0.4292 -0.4661,0.4661 -0.8361,0.141 -1.3222,0.3452 -0.4981,0.2091 -0.554,0.6159 -1.2105,0.6159 -0.2152,0 -0.5973,0.209 -0.4935,0.4758 0.1549,0.3984 0.3905,0.5832 0.717,0.8492 0.1467,0.1196 1.0969,1.0789 0.8473,1.2036 -0.1848,0.0924 -0.4905,-0.2323 -0.6331,-0.3079 -0.3088,-0.1639 -1.2961,-1.2842 -1.5178,-1.1477 -0.0843,0.0518 -0.3422,0.5659 -0.3259,0.1213 0.0078,-0.2118 0.1858,-0.4324 -0.0093,-0.6065 -0.1928,-0.172 -0.2869,-0.3195 -0.1676,-0.5598 0.3691,-0.7428 0.648,-0.3908 0.3166,-1.269 -0.1349,-0.3573 0.363,-0.389 0.5494,-0.14 0.1798,0.2404 0.52,0.4859 0.5959,-0.0093 0.0361,-0.2353 -0.3351,-0.7745 0.0559,-0.7745 0.3267,0 0.4195,0.6289 0.7356,0.2986 0.3535,-0.2581 0.603,-0.1958 0.8566,-0.6252 0.113,-0.1915 0.225,-0.5803 0.3725,-0.7278 0.1505,-0.1505 0.2961,-0.1335 0.419,-0.3452 0.125,-0.2152 0.314,-0.3514 0.4376,-0.5785 0.1052,-0.1931 0.2001,-0.5736 0.121,-0.7932 -0.114,-0.3169 -0.9979,0.4883 -0.7076,-0.2239 0.0565,-0.1385 0.5064,-0.2372 0.6518,-0.3826 0.2372,-0.2372 0.2638,-0.5223 0.0838,-0.7931 -0.2109,-0.1534 -0.3625,-0.4108 -0.2142,-0.6532 0.2781,-0.4549 0.0428,-0.1953 0.0373,-0.6251l-0.0187 -1.4743c-0.0125,-0.986 -0.2265,-2.4064 0.2049,-3.2752 0.2482,-0.4997 1.4128,-1.3399 0.2793,-1.3903 -0.2896,-0.0129 -0.0195,-0.3991 0.1304,-0.4385 0.2191,-0.0575 0.3895,0.0373 0.5866,0.0373 0.5093,0 0.6996,-0.1639 1.0609,-0.4935 0.1649,-0.3307 0.6412,0.0537 0.717,-0.2799 0.0739,-0.3256 0.0245,-0.6771 0.0931,-1.0077 0.1697,-0.8178 1.1524,-0.8585 1.8157,-0.8585 0.2282,0 1.2756,0.233 1.2756,-0.0653 0,-0.1422 -0.5545,-1.2768 -0.4376,-1.2223 -0.197,-0.0985 -0.5706,-0.4822 -0.6146,-0.7091 -0.0685,-0.3536 0.3073,-0.4217 0.3073,-0.6812 0,-0.1439 -0.3233,-0.1364 -0.27,-0.3452 0.1216,-0.4764 -0.2173,-0.1959 -0.447,-0.1959 -0.461,0 -0.0623,-0.7806 -0.1955,-0.9144 -0.1883,-0.189 -0.2313,0.4475 -0.2514,0.5131 -0.0385,0.1257 -0.1754,0.7052 -0.3259,0.2147 -0.035,-0.1144 -0.2388,-0.596 -0.3817,-0.6065 -0.3128,-0.0232 -0.4898,0.8638 -0.6704,0.5225 -0.0989,-0.1867 -0.111,-0.3091 -0.3166,-0.1027 -0.4729,0.4745 -0.1155,-0.8479 -0.0652,-0.933 0.1065,-0.2858 -0.0617,-0.2965 -0.2793,-0.2426 -0.2431,0.0601 -0.2577,0.0186 -0.4749,0.0186l-0.1397 0.5039c-0.0544,0.1962 -0.2749,0.0912 -0.4283,-0.0467 -0.5427,-0.4883 -0.2843,0.4254 -0.5214,0.5226 -0.2315,0.095 -0.3343,-0.2277 -0.3725,-0.3826 -0.1018,-0.4117 -0.3933,-0.1553 -0.4748,-0.3919 -0.0461,-0.1341 0.1064,-0.3009 -0.177,-0.2799 -0.2395,0.0177 -0.116,0.4036 -0.3352,0.5132 -0.2262,0.1131 -0.2598,-0.2091 -0.419,-0.224 -0.2978,-0.028 -0.1668,0.3906 -0.2514,0.5785 -0.1235,0.2745 -0.9004,0.1725 -1.1266,0.1213 -0.2031,-0.2031 -0.3674,0.2611 -0.5308,0.084 -0.2549,-0.2761 -0.1448,-0.1213 -0.4748,-0.1213 -0.3982,0 0.5143,-0.9079 -0.0187,-1.0637 -0.5572,-0.163 -0.2956,0.2917 -0.419,0.5879 -0.0713,0.171 -0.3899,0.0453 -0.4469,0.1492 -0.0793,0.1448 0.2277,0.4026 0.3259,0.4759 0.1748,0.1303 0.1821,0.4827 -0.0745,0.4665 -0.5988,-0.0377 -0.3811,-0.8749 -0.6797,-1.1383 -0.1078,-0.0952 -0.5694,-0.3809 -0.6797,-0.2706 -0.1815,0.1815 -0.4658,0.7566 -0.7822,0.2613 -0.0822,-0.1288 -0.0029,-1.1196 -0.3538,-0.5319 -0.1158,0.1938 -0.0135,0.451 -0.149,0.6345 -0.1293,0.1749 -1.0222,-0.5063 -1.2849,-0.5132 -0.4041,-0.1465 -0.3958,0.3077 -0.4376,0.4945 -0.063,0.281 -0.3073,0.076 -0.3073,-0.1492 0,-0.3749 -0.082,-1.217 -0.447,-0.4852 -0.2488,0.4986 -0.4206,0.1535 -0.7728,0.0653 -0.3529,-0.0883 -0.9192,0.012 -1.1639,-0.2333 -0.2987,-0.2996 -0.98,-0.5133 -1.406,-0.4012 -0.2276,0.0598 -0.3432,0.6313 -0.5028,0.5598 -0.2024,-0.0906 -0.7607,-0.6261 -0.7076,-0.5971 -0.3206,-0.2294 -0.3045,-0.7102 -0.7822,-0.6159 -0.0697,0.2833 -0.4296,0.2361 -0.568,0.028 -0.0612,-0.0922 -0.0691,-0.6027 -0.1489,-0.6158 -0.0235,-0.1673 -0.6635,-0.4604 -0.7729,-0.6251 -0.1539,-0.2314 -0.1767,-0.6234 -0.2421,-0.8865 -0.3368,-0.1122 -0.4096,-0.4744 -0.4096,-0.7744 0,-0.4286 -0.7087,-0.222 -0.7915,-0.4759 -0.0351,-0.0086 -0.136,-0.0789 -0.1583,-0.0933 -0.4309,-0.1436 -0.4333,-0.5391 -0.4935,-0.8957 -0.0259,-0.1531 0.0314,-0.8728 -0.2421,-0.7278 -0.2917,0.1548 -0.1036,0.2991 -0.5028,0.2333 -0.0899,-0.2264 0.0563,-0.4449 0.0373,-0.6812 -0.0138,-0.1728 -0.2008,-0.1935 -0.149,-0.4479 0.1701,-0.8358 -0.7118,-0.1448 -0.7728,-0.3918 -0.1181,-0.0297 0.2061,-0.7941 -0.2701,-0.6065 -0.2935,0.1157 -0.2717,0.6531 -0.6983,0.6531 -0.1213,-0.2427 -0.1324,-0.3345 -0.0652,-0.6531 -0.0672,-0.2483 -0.0429,-0.4864 -0.2886,-0.6252 -0.0716,-0.0405 -0.5248,-0.3144 -0.3445,-0.3732 0,-0.0324 0.2854,-0.4775 0.3165,-0.4852 0.0143,-0.0579 0.1182,-0.072 0.1304,-0.1213 0.3327,-0.0822 0.0059,-0.625 -0.0838,-0.7371 -0.1398,-0.1745 -0.658,-0.3512 -0.8566,-0.4013 -0.0203,-0.0806 -0.0102,-0.4629 0.0558,-0.4852 0,-0.8812 -1.1716,-0.4354 -1.3408,-1.1196 -0.1551,-0.0392 -0.4083,-0.0205 -0.4469,0.2146 -0.12,0.0169 -0.4374,0.1914 -0.5028,-0.0747 -0.0395,-0.0097 -0.0498,-0.0818 -0.0838,-0.0933l0 -0.0186c-0.0838,-0.0211 -0.0912,-0.436 -0.0838,-0.5132 0,-0.5594 -0.4325,-0.4104 -0.6611,-0.7745 -0.1836,-0.2925 -0.0137,-0.4796 -0.0373,-0.7744 -0.0302,-0.3759 -0.6611,-0.0453 -0.6611,-0.6625 0,-0.9244 -0.4135,-0.4479 -0.9218,-0.4479 -0.285,0 -0.1607,-0.4371 -0.2048,-0.6158 -0.0678,-0.2745 -0.5878,-0.1453 -0.838,-0.2706 -0.3039,-0.1521 -0.499,-0.458 -0.8194,-0.6065 -0.5539,-0.2567 -0.7665,0.1958 -1.0429,-0.3452 -0.1764,-0.3454 -0.589,-0.2359 -0.5679,-0.6905 0.0176,-0.3788 -0.1638,-0.3919 -0.4935,-0.3919 -0.443,0 -0.4656,-0.5358 -0.4656,-0.8677 0,-0.8891 -0.4341,-0.3546 -0.9404,-0.3546 -0.8497,0 -0.0064,-1.3587 -0.7729,-1.2783 -0.3504,0.0368 -0.5539,0.2326 -0.6797,0.5412 -0.0786,0.1928 -0.3606,0.4275 -0.4562,0.0933 -0.1213,-0.4238 0.1492,-1.1969 -0.419,-1.3809 -0.4179,-0.1353 -0.6798,-0.0167 -0.6798,-0.5692 0,-0.5751 -0.7283,-0.6407 -1.1545,-0.4759 -0.6131,0.2371 -0.9439,1.3755 -1.2105,0.028 -0.0691,-0.3491 0.2993,-0.754 0.0372,-0.9704 -0.2974,-0.2455 -0.5088,0.5423 -0.838,0.5972 -0.5438,0.0907 0.3141,-1.193 -0.1117,-1.381 -0.6478,-0.286 -0.5124,1.195 -0.9218,0.5412 -0.1048,-0.1675 -0.2313,-0.8798 -0.3818,-0.8864 -0.7769,-0.0345 -0.5216,0.6753 -1.0521,0.8398 -0.1805,0.0559 -0.3772,-0.4115 -0.4563,-0.5039 -0.2809,-0.3278 -0.3776,0.0041 -0.7169,-0.0093 -0.1508,-0.006 -0.2592,-0.0095 -0.4097,0.028 -0.3368,0.0841 0.4325,0.6698 0.2421,0.9237 -0.2377,0.317 -0.7829,-0.3444 -0.9591,-0.4572 -0.19,-0.1217 -0.2097,0.3776 -0.4376,0.1493 -0.0895,-0.0896 0.1323,-0.8315 -0.0186,-0.9517 -0.9422,-0.7505 -0.341,1.3964 -0.866,1.213 -0.7867,-0.2748 -0.1133,-1.5526 -0.689,-1.7449 -0.2666,-0.089 -1.1479,0.7274 -1.1639,0.2706 -0.0117,-0.3348 0.3212,-0.4618 0.5307,-0.6718 0.7477,-0.7496 -1.4615,-0.6815 -1.5549,-0.8771 -0.1332,-0.2789 0.2583,-0.4199 0.5307,-0.4199 0.1137,0 0.8287,0.0342 0.8287,-0.1119 0,-0.6809 -1.0501,-0.2164 -1.3874,-0.4106 -0.6178,-0.3557 0.4762,-0.791 0.0373,-1.2316 -0.4772,-0.479 -0.5478,0.9219 -1.2664,0.4572 -0.348,-0.225 -0.4161,-0.2548 -0.7914,0.028 -0.3784,0.2851 -0.237,-0.8151 -0.2793,-0.9518 -0.2432,-0.7866 -1.3129,0.5504 -1.3129,-0.2705 0,-0.191 0.3567,-0.8244 -0.1118,-0.6812 -0.2558,0.0781 -0.2377,0.3076 -0.419,0.4759 -0.237,0.22 -0.4065,1.1059 -0.7821,1.0823 -0.3339,-0.021 -0.1533,-0.8236 -0.7263,-0.7557 -0.2123,0.0252 -0.8692,0.0592 -0.4748,-0.336 0.1424,-0.1427 0.3106,-0.2111 0.4748,-0.3172 0.666,-0.4304 -0.0843,-0.4728 -0.4562,-0.4292 -0.6228,0.0731 -1.3011,0.0573 -0.568,0.8491 0.1814,0.1959 0.0669,0.6653 -0.2607,0.5785 -0.3492,-0.0926 -0.4399,-0.4913 -0.7449,-0.6438 -0.3582,-0.1791 -0.4526,0.6945 -0.8939,0.1773 -0.2393,-0.2804 -0.0606,-1.2877 -0.3631,-1.2877 -0.4191,0 0.1265,0.9522 -0.2794,1.0917 -0.2913,0.1001 -0.6983,-0.6277 -0.6983,-0.8584 0,-0.1987 0.2758,-1.0605 -0.0372,-1.045 -0.2395,0.0118 -0.4405,0.2275 -0.6798,0.2892 -0.4395,0.1134 -0.1216,0.5789 -0.2607,0.8957 -0.1082,0.2466 -0.9715,-0.0337 -1.0987,-0.1772 -0.1372,-0.1548 -0.111,-0.4382 -0.2793,-0.5226 -0.1783,-0.0894 -0.4487,0.2046 -0.6984,0.168 -0.425,-0.0623 -0.4389,-0.0829 -0.7449,0.2426 -0.2176,0.2315 -0.5335,0.4309 -0.8566,0.2239 -0.4314,-0.2763 -0.2467,-0.5331 -0.8008,-0.3825 -0.3224,0.0876 -0.104,0.8304 -0.3724,0.8304 -0.2878,0 -0.3226,-0.2339 -0.3352,-0.4759 -0.0302,-0.5756 -0.1425,-1.2132 -0.6611,-0.3732 -0.2412,0.3908 -0.6052,0.5904 -0.6052,-0.0746 0,-0.5853 0.0607,-0.9336 -0.6053,-1.0731 -0.4258,-0.0892 -1.61,0.263 -1.4991,-0.4105 0.0392,-0.2386 0.1489,-0.8741 -0.3259,-0.6438 -0.3574,0.1734 -0.3337,0.7072 -0.6797,0.8304 -1.5821,0.5635 -0.6013,-0.9797 -1.3408,-0.9797 -0.7514,0 0.0733,2.0135 -0.9218,1.5955 -0.4883,-0.2051 -0.5031,-0.7182 -0.27,-1.101 0.1696,-0.2786 0.7598,-1.2564 -0.0466,-1.0077 -0.3045,0.0938 -0.3736,0.7325 -0.7263,0.5878 -0.7779,-0.3192 0.8509,-1.9967 -0.0372,-1.9967 -0.4964,0 -0.9654,0.4629 -0.9311,0.961 0.0271,0.3942 0.5892,0.9776 -0.1676,1.1384 -0.3375,0.0717 -0.8314,0.6212 -1.136,0.2892 -0.135,-0.1472 -0.3588,-0.8584 -0.568,-0.8584 -0.6568,0 -0.3684,2.2967 -1.1639,1.3529 -0.2746,-0.3258 -0.5364,-1.0842 -1.0428,-0.6811 -0.3206,0.2552 -1.2753,1.7473 -1.6016,1.2317 -0.351,-0.5546 1.028,-1.9702 0.5029,-2.2021 -0.3655,-0.1614 -0.6701,0.0175 -1.0708,-0.2799 -0.1552,-0.1152 -0.2792,-0.5431 -0.4656,-0.6532 -0.1889,-0.1116 -0.5986,0.0686 -0.6425,0.2893 -0.1067,0.5359 -0.1459,0.9617 -0.7076,1.1197 -0.315,0.0886 -0.4784,0.4179 -0.8567,0.3079 -0.3513,-0.1021 -0.4018,-0.9235 -0.9218,-0.5505 -0.5588,0.4008 0.369,1.1397 0.2608,1.5395 -0.2304,0.8508 -1.2041,-0.3586 -1.3967,-0.5318 -0.3299,-0.2968 -0.6347,0.4204 -0.9125,0.4385 -0.6601,0.0429 -0.5418,-0.2035 -0.866,0.4013 -0.2859,0.5332 -0.7441,0.4219 -0.5773,-0.1213 0.0713,-0.2325 0.0105,-0.56 -0.1303,-0.7558 -0.5266,-0.7321 -1.1949,0.0816 -1.8529,-0.3546 -0.4784,-0.3172 -0.6312,-0.4925 -1.1267,-0.1026 -0.502,0.3949 -0.5436,0.7225 -1.076,0.3507l0 0zm-93.9407 -9.4339l199.136 0 0 189.917 -199.136 0 0 -189.917z"/>
  <polygon class="fil1 str1" points="177.733,181.683 203.18,181.683 203.18,197.612 177.733,197.612 "/>
  <path class="fil2" d="M204.967 196.682c0,-0.1745 0.0447,-0.3448 0.1341,-0.5113 0.0898,-0.166 0.2178,-0.2958 0.3848,-0.3885 0.1665,-0.0927 0.3405,-0.1392 0.5216,-0.1392 0.1792,0 0.3514,0.0456 0.5165,0.1373 0.1655,0.0913 0.2939,0.2197 0.3852,0.3843 0.0917,0.1651 0.1373,0.3373 0.1373,0.5174 0,0.1802 -0.0456,0.3528 -0.1373,0.5174 -0.0913,0.1651 -0.2197,0.2935 -0.3852,0.3852 -0.1651,0.0922 -0.3373,0.1379 -0.5165,0.1379 -0.1811,0 -0.3551,-0.0466 -0.5216,-0.1397 -0.167,-0.0932 -0.295,-0.223 -0.3848,-0.3895 -0.0894,-0.166 -0.1341,-0.3368 -0.1341,-0.5113zm0.1722 0c0,0.1463 0.0376,0.2884 0.1124,0.4266 0.0748,0.1383 0.182,0.2465 0.3208,0.3246 0.1392,0.0781 0.2841,0.1171 0.4351,0.1171 0.1496,0 0.293,-0.0386 0.4304,-0.1152 0.1373,-0.0767 0.2446,-0.1839 0.3212,-0.3218 0.0767,-0.1378 0.1153,-0.2812 0.1153,-0.4313 0,-0.1496 -0.0386,-0.2935 -0.1153,-0.4313 -0.0766,-0.1378 -0.1839,-0.2446 -0.3212,-0.3208 -0.1374,-0.0762 -0.2808,-0.1143 -0.4304,-0.1143 -0.151,0 -0.2959,0.0386 -0.4351,0.1162 -0.1388,0.0776 -0.246,0.1858 -0.3208,0.3245 -0.0748,0.1388 -0.1124,0.2808 -0.1124,0.4257zm1.0362 -0.3335l0.0499 -0.1693c0.1147,0.0277 0.2065,0.0861 0.2747,0.1754 0.0686,0.0899 0.1025,0.1985 0.1025,0.326 0,0.1618 -0.0522,0.293 -0.1571,0.3942 -0.1044,0.1011 -0.2498,0.1519 -0.4351,0.1519 -0.1213,0 -0.2267,-0.023 -0.3165,-0.0691 -0.0894,-0.0461 -0.1571,-0.1115 -0.2023,-0.1962 -0.0456,-0.0851 -0.0682,-0.1825 -0.0682,-0.2916 0,-0.1223 0.0292,-0.2239 0.0875,-0.3048 0.0583,-0.0804 0.1373,-0.1359 0.2375,-0.1651l0.04 0.1641c-0.0682,0.0273 -0.1199,0.0683 -0.1566,0.1219 -0.0363,0.0536 -0.0541,0.1166 -0.0541,0.1895 0,0.1054 0.0376,0.1924 0.1129,0.2611 0.0752,0.0682 0.1834,0.1025 0.3236,0.1025 0.1406,0 0.2469,-0.0324 0.3194,-0.0969 0.0719,-0.0649 0.1081,-0.1486 0.1081,-0.2516 0,-0.0828 -0.024,-0.1552 -0.0719,-0.2178 -0.0475,-0.0626 -0.1124,-0.1039 -0.1943,-0.1242z"/>
  <path id="1" class="fil2" d="M207.022 193.728l-0.1849 0c0.1454,0.0927 0.2178,0.2291 0.2178,0.4093 0,0.1166 -0.032,0.2238 -0.0964,0.3217 -0.064,0.0978 -0.1538,0.1735 -0.2695,0.2276 -0.1153,0.0537 -0.2474,0.0805 -0.3975,0.0805 -0.1458,0 -0.2784,-0.0245 -0.3974,-0.0729 -0.119,-0.049 -0.2103,-0.1219 -0.2733,-0.2192 -0.0635,-0.0974 -0.0955,-0.2065 -0.0955,-0.3269 0,-0.088 0.0188,-0.1665 0.056,-0.2352 0.0371,-0.0692 0.0856,-0.1251 0.1453,-0.1684l-0.7248 0 0 -0.2465 2.0202 0 0 0.23zm-0.7305 0.7841c0.1877,0 0.3279,-0.0395 0.4205,-0.1185 0.0927,-0.079 0.1393,-0.1722 0.1393,-0.2799 0,-0.1081 -0.0447,-0.2003 -0.1332,-0.2761 -0.0884,-0.0757 -0.2239,-0.1138 -0.4059,-0.1138 -0.2004,0 -0.3471,0.0386 -0.4407,0.1157 -0.0941,0.0772 -0.1407,0.1722 -0.1407,0.2855 0,0.1101 0.0452,0.2023 0.135,0.2761 0.0899,0.0739 0.2319,0.111 0.4257,0.111z"/>
  <polygon id="12" class="fil2" points="206.415,193.204 206.166,193.204 206.166,192.442 206.415,192.442 "/>
  <path id="123" class="fil2" d="M207.022 192.168l-1.4633 0 0 -0.2215 0.2051 0c-0.0715,-0.0461 -0.1294,-0.1073 -0.1727,-0.1835 -0.0437,-0.0762 -0.0658,-0.1632 -0.0658,-0.2605 0,-0.1082 0.0226,-0.1971 0.0677,-0.2663 0.0452,-0.0696 0.1077,-0.1185 0.1886,-0.1467 -0.1707,-0.1162 -0.2563,-0.2667 -0.2563,-0.452 0,-0.1454 0.0404,-0.2569 0.1209,-0.3349 0.0804,-0.0781 0.2041,-0.1172 0.3711,-0.1172l1.0047 0 0 0.2465 -0.9219 0c-0.0993,0 -0.1708,0.008 -0.2145,0.024 -0.0433,0.0165 -0.0786,0.0456 -0.1054,0.0875 -0.0263,0.0423 -0.0399,0.0922 -0.0399,0.1491 0,0.103 0.0343,0.1881 0.103,0.2563 0.0682,0.0678 0.1778,0.1021 0.3283,0.1021l0.8504 0 0 0.2479 -0.9506 0c-0.1105,0 -0.1933,0.0202 -0.2484,0.0607 -0.055,0.0404 -0.0827,0.1063 -0.0827,0.1985 0,0.0696 0.0183,0.134 0.0555,0.1933 0.0366,0.0593 0.0903,0.1025 0.1608,0.1289 0.071,0.0268 0.1731,0.04 0.3062,0.04l0.7592 0 0 0.2478z"/>
  <path id="1234" class="fil2" d="M206.841 188.862c0.0781,0.0922 0.1331,0.1806 0.1655,0.2653 0.032,0.0851 0.048,0.1764 0.048,0.2737 0,0.1609 -0.039,0.2841 -0.1176,0.3707 -0.0785,0.0861 -0.1792,0.1293 -0.301,0.1293 -0.072,0 -0.1373,-0.016 -0.1966,-0.0489 -0.0593,-0.0324 -0.1068,-0.0752 -0.1425,-0.1279 -0.0358,-0.0532 -0.0631,-0.1124 -0.0814,-0.1788 -0.0127,-0.0484 -0.0254,-0.1218 -0.0372,-0.2201 -0.024,-0.2004 -0.0522,-0.3481 -0.0856,-0.4426 -0.0338,-0.001 -0.0555,-0.0014 -0.0644,-0.0014 -0.1011,0 -0.1726,0.0235 -0.2136,0.0705 -0.0564,0.0631 -0.0842,0.1576 -0.0842,0.2823 0,0.1166 0.0203,0.2027 0.0612,0.2587 0.0409,0.0555 0.1133,0.0964 0.2173,0.1232l-0.0334 0.2422c-0.1035,-0.0221 -0.1877,-0.0583 -0.2512,-0.1086 -0.0639,-0.0504 -0.1133,-0.1237 -0.1477,-0.2192 -0.0343,-0.0955 -0.0517,-0.206 -0.0517,-0.3321 0,-0.1251 0.015,-0.2262 0.0442,-0.3043 0.0296,-0.0781 0.0663,-0.1355 0.111,-0.1726 0.0447,-0.0367 0.1007,-0.0621 0.1689,-0.0772 0.0423,-0.008 0.1185,-0.0122 0.2286,-0.0122l0.3306 0c0.231,0 0.3768,-0.0052 0.4375,-0.016 0.0611,-0.0104 0.1199,-0.0315 0.1759,-0.0626l0 0.2592c-0.0513,0.0254 -0.1115,0.0423 -0.1806,0.0494zm-0.5541 0.0207c0.0371,0.0903 0.0682,0.2253 0.0941,0.405 0.0145,0.102 0.031,0.1745 0.0493,0.2163 0.0184,0.0424 0.0452,0.0753 0.081,0.0979 0.0352,0.023 0.0743,0.0348 0.1175,0.0348 0.0664,0 0.1214,-0.0254 0.1656,-0.0753 0.0438,-0.0498 0.0659,-0.1232 0.0659,-0.2196 0,-0.0955 -0.0207,-0.1807 -0.0626,-0.255 -0.0419,-0.0743 -0.0992,-0.1293 -0.1717,-0.1641 -0.056,-0.0268 -0.1387,-0.04 -0.2479,-0.04l-0.0912 0z"/>
  <path id="12345" class="fil2" d="M207.582 188.247l-2.024 0 0 -0.2257 0.19 0c-0.0743,-0.0532 -0.1303,-0.1134 -0.1674,-0.1807 -0.0372,-0.0668 -0.056,-0.1481 -0.056,-0.2436 0,-0.1251 0.0324,-0.2352 0.0964,-0.3307 0.0645,-0.0959 0.1552,-0.1679 0.2724,-0.2163 0.1171,-0.049 0.2455,-0.0734 0.3852,-0.0734 0.1496,0 0.2846,0.0268 0.4045,0.0809 0.1199,0.0536 0.2117,0.1317 0.2756,0.2342 0.0635,0.1026 0.0955,0.2103 0.0955,0.3232 0,0.0827 -0.0174,0.1566 -0.0522,0.2224 -0.0348,0.0659 -0.079,0.1195 -0.1322,0.1619l0.7122 0 0 0.2478zm-1.2841 -0.2243c0.1881,0 0.3274,-0.0381 0.4177,-0.1143 0.0898,-0.0762 0.135,-0.1689 0.135,-0.2771 0,-0.11 -0.0466,-0.2046 -0.1402,-0.2831 -0.0931,-0.0786 -0.2375,-0.1181 -0.4332,-0.1181 -0.1868,0 -0.326,0.0386 -0.4191,0.1152 -0.0927,0.0767 -0.1392,0.1684 -0.1392,0.2747 0,0.1059 0.0493,0.1995 0.1481,0.2808 0.0988,0.0814 0.2427,0.1219 0.4309,0.1219z"/>
  <path id="123456" class="fil2" d="M206.585 186.777l-0.0385 -0.2451c0.0983,-0.0136 0.1735,-0.0522 0.2262,-0.1152 0.0522,-0.0626 0.0786,-0.1505 0.0786,-0.2639 0,-0.1138 -0.0236,-0.1985 -0.0697,-0.2535 -0.0465,-0.0551 -0.1011,-0.0828 -0.1632,-0.0828 -0.0564,0 -0.1002,0.0245 -0.1326,0.0734 -0.0221,0.0338 -0.0499,0.1185 -0.0837,0.2535 -0.0461,0.1816 -0.0857,0.3081 -0.1195,0.3782 -0.0334,0.0701 -0.08,0.1237 -0.1392,0.1599 -0.0593,0.0362 -0.1247,0.0546 -0.1962,0.0546 -0.0654,0 -0.1256,-0.0151 -0.1811,-0.0452 -0.056,-0.0296 -0.102,-0.0705 -0.1387,-0.1218 -0.0283,-0.0386 -0.0527,-0.0913 -0.0725,-0.1576 -0.0197,-0.0668 -0.0296,-0.1383 -0.0296,-0.2145 0,-0.1147 0.0169,-0.2154 0.0499,-0.3024 0.0329,-0.087 0.0776,-0.151 0.134,-0.1924 0.0569,-0.0414 0.1322,-0.0696 0.2267,-0.0851l0.0334 0.2422c-0.0752,0.0113 -0.134,0.0433 -0.1764,0.096 -0.0423,0.0526 -0.0635,0.1274 -0.0635,0.2238 0,0.1139 0.0188,0.1952 0.0565,0.2437 0.0376,0.0489 0.0818,0.0734 0.1321,0.0734 0.0325,0 0.0612,-0.0104 0.0871,-0.0306 0.0268,-0.0202 0.0484,-0.0517 0.0663,-0.095 0.0089,-0.0249 0.0301,-0.0979 0.063,-0.2192 0.0471,-0.1755 0.0852,-0.2977 0.1153,-0.3669 0.0296,-0.0696 0.0733,-0.1242 0.1302,-0.1637 0.057,-0.0395 0.1275,-0.0592 0.2122,-0.0592 0.0828,0 0.1604,0.0244 0.2338,0.0724 0.0729,0.0484 0.1293,0.1181 0.1693,0.2088 0.04,0.0908 0.0597,0.1938 0.0597,0.3086 0,0.1905 -0.0395,0.3354 -0.1185,0.4351 -0.079,0.0997 -0.1961,0.1632 -0.3514,0.1905z"/>
  <polygon id="1234567" class="fil2" points="207.022,185.197 206.739,185.197 206.739,184.914 207.022,184.914 "/>
  <path id="12345678" class="fil2" d="M206.486 183.528l0.032 -0.2437c0.1679,0.0264 0.2996,0.0946 0.3946,0.2047 0.095,0.1095 0.1425,0.2445 0.1425,0.4045 0,0.1999 -0.0654,0.3612 -0.1961,0.4826 -0.1308,0.1218 -0.3185,0.1829 -0.563,0.1829 -0.1581,0 -0.2964,-0.0263 -0.4149,-0.0785 -0.1185,-0.0527 -0.2074,-0.1322 -0.2667,-0.2394 -0.0593,-0.1068 -0.0889,-0.2235 -0.0889,-0.349 0,-0.159 0.0404,-0.2893 0.1209,-0.39 0.0804,-0.1011 0.1942,-0.166 0.3424,-0.1947l0.0372 0.2413c-0.0983,0.023 -0.1722,0.0635 -0.222,0.1218 -0.0494,0.0583 -0.0744,0.1289 -0.0744,0.2117 0,0.1251 0.0447,0.2267 0.1346,0.3048 0.0893,0.0781 0.2309,0.1171 0.4247,0.1171 0.1966,0 0.3396,-0.0376 0.429,-0.1134 0.0889,-0.0752 0.1336,-0.1735 0.1336,-0.2949 0,-0.0973 -0.0301,-0.1783 -0.0899,-0.2436 -0.0597,-0.0654 -0.1514,-0.1068 -0.2756,-0.1242z"/>
  <path id="123456789" class="fil2" d="M206.29 183.164c-0.2709,0 -0.4718,-0.0753 -0.6021,-0.2262 -0.1081,-0.1256 -0.1627,-0.279 -0.1627,-0.4601 0,-0.2013 0.0658,-0.3659 0.198,-0.4934 0.1317,-0.1279 0.3138,-0.1914 0.5461,-0.1914 0.1886,0 0.3368,0.0282 0.4445,0.0846 0.1082,0.0565 0.1919,0.1388 0.2517,0.2465 0.0597,0.1082 0.0893,0.2258 0.0893,0.3537 0,0.2046 -0.0654,0.3702 -0.1971,0.4967 -0.1312,0.1266 -0.3203,0.1896 -0.5677,0.1896zm0 -0.2549c0.1877,0 0.3279,-0.041 0.421,-0.1228 0.0936,-0.0819 0.1402,-0.1849 0.1402,-0.3086 0,-0.1232 -0.0471,-0.2257 -0.1407,-0.3076 -0.0936,-0.0814 -0.2366,-0.1223 -0.4285,-0.1223 -0.1811,0 -0.3184,0.0409 -0.4116,0.1233 -0.0931,0.0823 -0.1397,0.1843 -0.1397,0.3066 0,0.1237 0.0466,0.2267 0.1393,0.3086 0.0926,0.0818 0.2328,0.1228 0.42,0.1228z"/>
  <path id="12345678910" class="fil2" d="M207.022 181.502l-1.4633 0 0 -0.2215 0.2051 0c-0.0715,-0.0461 -0.1294,-0.1073 -0.1727,-0.1835 -0.0437,-0.0762 -0.0658,-0.1632 -0.0658,-0.2605 0,-0.1082 0.0226,-0.1971 0.0677,-0.2663 0.0452,-0.0696 0.1077,-0.1185 0.1886,-0.1467 -0.1707,-0.1162 -0.2563,-0.2667 -0.2563,-0.452 0,-0.1454 0.0404,-0.2569 0.1209,-0.3349 0.0804,-0.0781 0.2041,-0.1172 0.3711,-0.1172l1.0047 0 0 0.2465 -0.9219 0c-0.0993,0 -0.1708,0.008 -0.2145,0.024 -0.0433,0.0165 -0.0786,0.0456 -0.1054,0.0875 -0.0263,0.0423 -0.0399,0.0922 -0.0399,0.1491 0,0.103 0.0343,0.1881 0.103,0.2563 0.0682,0.0678 0.1778,0.1021 0.3283,0.1021l0.8504 0 0 0.2479 -0.9506 0c-0.1105,0 -0.1933,0.0202 -0.2484,0.0607 -0.055,0.0404 -0.0827,0.1063 -0.0827,0.1985 0,0.0696 0.0183,0.134 0.0555,0.1933 0.0366,0.0593 0.0903,0.1025 0.1608,0.1289 0.071,0.0268 0.1731,0.04 0.3062,0.04l0.7592 0 0 0.2478z"/>
  <g id="_322312552">
   <g>
    <polygon id="_322312504" class="fil3 str2" points="179.06,187.711 183.658,187.711 183.658,188.702 179.06,188.702 "/>
    <polygon id="_322301080" class="fil4 str2" points="183.658,187.711 188.257,187.711 188.257,188.702 183.658,188.702 "/>
    <polygon id="_322313272" class="fil3 str2" points="188.257,187.711 192.855,187.711 192.855,188.702 188.257,188.702 "/>
    <polygon id="_322304464" class="fil4 str2" points="192.856,187.711 197.455,187.711 197.455,188.702 192.856,188.702 "/>
    <polygon id="_322307368" class="fil3 str2" points="197.455,187.711 202.053,187.711 202.053,188.702 197.455,188.702 "/>
    <polygon id="_322304896" class="fil4 str2" points="193.785,190.7 201.14,190.7 201.14,191.692 193.785,191.692 "/>
    <polygon id="_322301104" class="fil3 str2" points="186.43,190.7 193.785,190.7 193.785,191.692 186.43,191.692 "/>
    <polygon id="_322305688" class="fil4 str2" points="179.076,190.7 186.431,190.7 186.431,191.692 179.076,191.692 "/>
   </g>
   <path id="_322311520" class="fil5" d="M185.533 183.658l0.5686 -0.2775 0.057 0 0 1.9726c0,0.1306 0.0053,0.2123 0.0159,0.2446 0.0112,0.0318 0.0341,0.0565 0.0682,0.0741 0.0347,0.0171 0.1047,0.027 0.2105,0.0294l0 0.0635 -0.879 0 0 -0.0635c0.1105,-0.0024 0.1817,-0.0118 0.214,-0.0288 0.0318,-0.0165 0.0541,-0.0388 0.067,-0.067 0.0124,-0.0283 0.0189,-0.1123 0.0189,-0.2523l0 -1.2612c0,-0.1699 -0.0059,-0.2787 -0.0171,-0.3269 -0.0082,-0.037 -0.0229,-0.0641 -0.0441,-0.0811 -0.0212,-0.0171 -0.0464,-0.0259 -0.0764,-0.0259 -0.0424,0 -0.1017,0.0177 -0.1776,0.0535l-0.0259 -0.0535z"/>
   <path id="_3223115201" class="fil5" d="M187.011 184.611c0,-0.2663 0.04,-0.4956 0.1205,-0.6879 0.0806,-0.1923 0.187,-0.3357 0.3205,-0.4298 0.1034,-0.0747 0.2099,-0.1123 0.3204,-0.1123 0.1787,0 0.3399,0.0917 0.4821,0.274 0.1782,0.2264 0.267,0.5327 0.267,0.9202 0,0.271 -0.0388,0.5009 -0.117,0.6902 -0.0782,0.1899 -0.1776,0.3275 -0.2987,0.4128 -0.1211,0.0858 -0.2381,0.1282 -0.351,0.1282 -0.2223,0 -0.4081,-0.1312 -0.5562,-0.3946 -0.1253,-0.2216 -0.1876,-0.4886 -0.1876,-0.8008zm0.3375 0.0429c0,0.3217 0.0394,0.5845 0.1188,0.7873 0.0652,0.1711 0.1634,0.257 0.2928,0.257 0.0623,0 0.1264,-0.0283 0.1928,-0.0835 0.067,-0.0559 0.1176,-0.1494 0.1517,-0.2799 0.0529,-0.1975 0.0794,-0.4762 0.0794,-0.8355 0,-0.2663 -0.0277,-0.4886 -0.0829,-0.6667 -0.0412,-0.1323 -0.0947,-0.2258 -0.1599,-0.2811 -0.0471,-0.0376 -0.1041,-0.0564 -0.1706,-0.0564 -0.0782,0 -0.1475,0.0347 -0.2087,0.1046 -0.0823,0.0953 -0.1387,0.2452 -0.1687,0.4498 -0.03,0.2046 -0.0447,0.4057 -0.0447,0.6044z"/>
   <path id="_32231152012" class="fil5" d="M188.775 184.611c0,-0.2663 0.04,-0.4956 0.1205,-0.6879 0.0806,-0.1923 0.187,-0.3357 0.3205,-0.4298 0.1034,-0.0747 0.2099,-0.1123 0.3204,-0.1123 0.1787,0 0.3399,0.0917 0.4821,0.274 0.1782,0.2264 0.267,0.5327 0.267,0.9202 0,0.271 -0.0388,0.5009 -0.117,0.6902 -0.0782,0.1899 -0.1776,0.3275 -0.2987,0.4128 -0.1211,0.0858 -0.2381,0.1282 -0.351,0.1282 -0.2223,0 -0.4081,-0.1312 -0.5562,-0.3946 -0.1253,-0.2216 -0.1876,-0.4886 -0.1876,-0.8008zm0.3375 0.0429c0,0.3217 0.0394,0.5845 0.1188,0.7873 0.0652,0.1711 0.1634,0.257 0.2928,0.257 0.0623,0 0.1264,-0.0283 0.1928,-0.0835 0.067,-0.0559 0.1176,-0.1494 0.1517,-0.2799 0.0529,-0.1975 0.0794,-0.4762 0.0794,-0.8355 0,-0.2663 -0.0277,-0.4886 -0.0829,-0.6667 -0.0412,-0.1323 -0.0947,-0.2258 -0.1599,-0.2811 -0.0471,-0.0376 -0.1041,-0.0564 -0.1706,-0.0564 -0.0782,0 -0.1475,0.0347 -0.2087,0.1046 -0.0823,0.0953 -0.1387,0.2452 -0.1687,0.4498 -0.03,0.2046 -0.0447,0.4057 -0.0447,0.6044z"/>
   <path id="_322311520123" class="fil5" d="M191.87 183.315l0 1.5693 0.4016 -0.3651c0.0852,-0.0782 0.1346,-0.1276 0.1481,-0.1482 0.0095,-0.0141 0.0136,-0.0276 0.0136,-0.0411 0,-0.0236 -0.0094,-0.043 -0.0283,-0.06 -0.0188,-0.0165 -0.0499,-0.0259 -0.094,-0.0282l0 -0.0553 0.6855 0 0 0.0553c-0.094,0.0023 -0.1722,0.0164 -0.2346,0.0429 -0.0629,0.0264 -0.1317,0.0735 -0.2063,0.1417l-0.4046 0.3733 0.4046 0.5116c0.1129,0.1417 0.1887,0.231 0.2275,0.2693 0.0553,0.0535 0.1035,0.0887 0.1446,0.1046 0.0289,0.0118 0.0788,0.0177 0.15,0.0177l0 0.0617 -0.7667 0 0 -0.0617c0.0441,-0.0012 0.0735,-0.0083 0.0888,-0.02 0.0158,-0.0124 0.0235,-0.0288 0.0235,-0.0512 0,-0.0264 -0.023,-0.0688 -0.0688,-0.127l-0.4845 -0.6185 0 0.5233c0,0.1023 0.0076,0.1699 0.0218,0.2016 0.0141,0.0324 0.0346,0.0553 0.0611,0.0688 0.0265,0.0141 0.0841,0.0218 0.1723,0.023l0 0.0617 -0.8026 0 0 -0.0617c0.0805,0 0.1405,-0.01 0.1805,-0.0294 0.0241,-0.013 0.0429,-0.0324 0.0553,-0.0588 0.017,-0.0377 0.0258,-0.1035 0.0258,-0.1964l0 -1.4364c0,-0.1829 -0.0041,-0.2946 -0.0117,-0.3352 -0.0082,-0.0405 -0.0218,-0.0687 -0.04,-0.0846 -0.0182,-0.0153 -0.0423,-0.023 -0.0723,-0.023 -0.0241,0 -0.06,0.0095 -0.1082,0.0294l-0.0294 -0.0605 0.4686 -0.1929 0.0788 0z"/>
   <path id="_3223115201234" class="fil5" d="M193.636 184.476c0.1152,-0.1153 0.1828,-0.1811 0.2034,-0.1982 0.0517,-0.0441 0.1076,-0.0776 0.167,-0.1017 0.06,-0.0241 0.1187,-0.0365 0.1775,-0.0365 0.0988,0 0.1841,0.0289 0.2552,0.0865 0.0712,0.057 0.1188,0.1405 0.1429,0.2499 0.1182,-0.1382 0.2181,-0.2288 0.2999,-0.2717 0.0811,-0.0429 0.1652,-0.0647 0.251,-0.0647 0.0841,0 0.1582,0.0218 0.2234,0.0647 0.0647,0.0429 0.1159,0.1135 0.1541,0.2111 0.0253,0.0664 0.0376,0.1711 0.0376,0.3134l0 0.6791c0,0.0988 0.0077,0.1664 0.0224,0.2028 0.0117,0.0253 0.0329,0.0471 0.0641,0.0647 0.0311,0.0177 0.0811,0.0271 0.1517,0.0271l0 0.0617 -0.7791 0 0 -0.0617 0.0329 0c0.0676,0 0.1206,-0.0136 0.1588,-0.04 0.0264,-0.0182 0.0452,-0.0476 0.0564,-0.0876 0.0047,-0.0194 0.0071,-0.0753 0.0071,-0.167l0 -0.6791c0,-0.1288 -0.0153,-0.2193 -0.0465,-0.2722 -0.0447,-0.0735 -0.1164,-0.11 -0.2152,-0.11 -0.0611,0 -0.1223,0.0153 -0.1834,0.0453 -0.0618,0.0306 -0.1358,0.087 -0.2234,0.1699l-0.0036 0.0188 0.0036 0.0741 0 0.7532c0,0.1076 0.0064,0.1746 0.0182,0.2011 0.0123,0.0264 0.0347,0.0488 0.0682,0.0664 0.0329,0.0177 0.0899,0.0271 0.1705,0.0271l0 0.0617 -0.7979 0 0 -0.0617c0.0876,0 0.1476,-0.0106 0.1805,-0.0312 0.0324,-0.0206 0.0553,-0.0517 0.0676,-0.0929 0.0059,-0.02 0.0089,-0.0764 0.0089,-0.1705l0 -0.6791c0,-0.1288 -0.0188,-0.2211 -0.0571,-0.2769 -0.0505,-0.0735 -0.1211,-0.1106 -0.2116,-0.1106 -0.0624,0 -0.1235,0.0165 -0.1847,0.05 -0.0952,0.0506 -0.1687,0.1076 -0.2204,0.1705l0 0.8461c0,0.1029 0.0076,0.1705 0.0217,0.2011 0.0141,0.0311 0.0359,0.0547 0.0635,0.0699 0.0282,0.0153 0.0853,0.0236 0.1717,0.0236l0 0.0617 -0.7802 0 0 -0.0617c0.0723,0 0.1229,-0.0083 0.1517,-0.0236 0.0282,-0.0152 0.0505,-0.0399 0.0652,-0.074 0.0147,-0.0341 0.0224,-0.0994 0.0224,-0.197l0 -0.6033c0,-0.1734 -0.0053,-0.2851 -0.0153,-0.3357 -0.0082,-0.0382 -0.0212,-0.0641 -0.0382,-0.0782 -0.0171,-0.0147 -0.0406,-0.0217 -0.0706,-0.0217 -0.0323,0 -0.0705,0.0088 -0.1152,0.0258l-0.0259 -0.0623 0.4751 -0.1929 0.0741 0 0 0.3364z"/>
   <path id="_322302448" class="fil5" d="M187.607 193.079l0 0.0641c-0.1511,0.0147 -0.2751,0.0447 -0.371,0.0905 -0.0958,0.0453 -0.1905,0.1141 -0.284,0.2076 -0.0934,0.0929 -0.1711,0.1964 -0.2328,0.3104 -0.0611,0.1147 -0.1129,0.2505 -0.154,0.4075 0.1652,-0.1135 0.331,-0.1705 0.498,-0.1705 0.1593,0 0.2981,0.0647 0.4151,0.1928 0.117,0.1288 0.1758,0.294 0.1758,0.4963 0,0.1952 -0.0594,0.3733 -0.1776,0.5339 -0.1423,0.1952 -0.331,0.2928 -0.565,0.2928 -0.1599,0 -0.2952,-0.053 -0.4069,-0.1582 -0.2181,-0.2058 -0.3269,-0.4721 -0.3269,-0.7996 0,-0.2088 0.0417,-0.4075 0.1258,-0.5957 0.0835,-0.1887 0.2035,-0.3557 0.3593,-0.5015 0.1552,-0.1458 0.3045,-0.244 0.4468,-0.2946 0.1423,-0.0505 0.2752,-0.0758 0.3981,-0.0758l0.0993 0zm-1.0712 1.2059c-0.0206,0.1552 -0.0312,0.2805 -0.0312,0.3757 0,0.11 0.0206,0.2299 0.0612,0.3593 0.0411,0.1287 0.1017,0.2316 0.1822,0.3075 0.0582,0.0535 0.1294,0.0805 0.2135,0.0805 0.0999,0 0.1893,-0.047 0.2675,-0.1411 0.0788,-0.0941 0.1182,-0.2287 0.1182,-0.4033 0,-0.1964 -0.0388,-0.3663 -0.117,-0.5098 -0.0782,-0.1435 -0.1888,-0.2152 -0.3328,-0.2152 -0.0435,0 -0.09,0.0094 -0.14,0.0276 -0.0499,0.0183 -0.124,0.0583 -0.2216,0.1188z"/>
   <path id="_3223024481" class="fil5" d="M187.917 194.309c0,-0.2663 0.04,-0.4956 0.1205,-0.6879 0.0806,-0.1923 0.187,-0.3357 0.3205,-0.4298 0.1034,-0.0747 0.2099,-0.1123 0.3204,-0.1123 0.1787,0 0.3399,0.0917 0.4821,0.274 0.1782,0.2264 0.267,0.5327 0.267,0.9202 0,0.271 -0.0388,0.5009 -0.117,0.6902 -0.0782,0.1899 -0.1776,0.3275 -0.2987,0.4128 -0.1211,0.0858 -0.2381,0.1282 -0.351,0.1282 -0.2223,0 -0.4081,-0.1312 -0.5562,-0.3946 -0.1253,-0.2216 -0.1876,-0.4886 -0.1876,-0.8008zm0.3375 0.0429c0,0.3217 0.0394,0.5845 0.1188,0.7873 0.0652,0.1711 0.1634,0.257 0.2928,0.257 0.0623,0 0.1264,-0.0283 0.1928,-0.0835 0.067,-0.0559 0.1176,-0.1494 0.1517,-0.2799 0.0529,-0.1975 0.0794,-0.4762 0.0794,-0.8355 0,-0.2663 -0.0277,-0.4886 -0.0829,-0.6667 -0.0412,-0.1323 -0.0947,-0.2258 -0.1599,-0.2811 -0.0471,-0.0376 -0.1041,-0.0564 -0.1706,-0.0564 -0.0782,0 -0.1475,0.0347 -0.2087,0.1046 -0.0823,0.0953 -0.1387,0.2452 -0.1687,0.4498 -0.03,0.2046 -0.0447,0.4057 -0.0447,0.6044z"/>
   <path id="_32230244812" class="fil5" d="M191.014 194.175c0.1152,-0.1153 0.1828,-0.1811 0.2034,-0.1982 0.0517,-0.0441 0.1076,-0.0776 0.167,-0.1017 0.06,-0.0241 0.1187,-0.0365 0.1775,-0.0365 0.0988,0 0.1841,0.0289 0.2552,0.0865 0.0712,0.057 0.1188,0.1405 0.1429,0.2499 0.1182,-0.1382 0.2181,-0.2288 0.2999,-0.2717 0.0811,-0.0429 0.1652,-0.0647 0.251,-0.0647 0.0841,0 0.1582,0.0218 0.2234,0.0647 0.0647,0.0429 0.1159,0.1135 0.1541,0.2111 0.0253,0.0664 0.0376,0.1711 0.0376,0.3134l0 0.6791c0,0.0988 0.0077,0.1664 0.0224,0.2028 0.0117,0.0253 0.0329,0.0471 0.0641,0.0647 0.0311,0.0177 0.0811,0.0271 0.1517,0.0271l0 0.0617 -0.7791 0 0 -0.0617 0.0329 0c0.0676,0 0.1206,-0.0136 0.1588,-0.04 0.0264,-0.0182 0.0452,-0.0476 0.0564,-0.0876 0.0047,-0.0194 0.0071,-0.0753 0.0071,-0.167l0 -0.6791c0,-0.1288 -0.0153,-0.2193 -0.0465,-0.2722 -0.0447,-0.0735 -0.1164,-0.11 -0.2152,-0.11 -0.0611,0 -0.1223,0.0153 -0.1834,0.0453 -0.0618,0.0306 -0.1358,0.087 -0.2234,0.1699l-0.0036 0.0188 0.0036 0.0741 0 0.7532c0,0.1076 0.0064,0.1746 0.0182,0.2011 0.0123,0.0264 0.0347,0.0488 0.0682,0.0664 0.0329,0.0177 0.0899,0.0271 0.1705,0.0271l0 0.0617 -0.7979 0 0 -0.0617c0.0876,0 0.1476,-0.0106 0.1805,-0.0312 0.0324,-0.0206 0.0553,-0.0517 0.0676,-0.0929 0.0059,-0.02 0.0089,-0.0764 0.0089,-0.1705l0 -0.6791c0,-0.1288 -0.0188,-0.2211 -0.0571,-0.2769 -0.0505,-0.0735 -0.1211,-0.1106 -0.2116,-0.1106 -0.0624,0 -0.1235,0.0165 -0.1847,0.05 -0.0952,0.0506 -0.1687,0.1076 -0.2204,0.1705l0 0.8461c0,0.1029 0.0076,0.1705 0.0217,0.2011 0.0141,0.0311 0.0359,0.0547 0.0635,0.0699 0.0282,0.0153 0.0853,0.0236 0.1717,0.0236l0 0.0617 -0.7802 0 0 -0.0617c0.0723,0 0.1229,-0.0083 0.1517,-0.0236 0.0282,-0.0152 0.0505,-0.0399 0.0652,-0.074 0.0147,-0.0341 0.0224,-0.0994 0.0224,-0.197l0 -0.6033c0,-0.1734 -0.0053,-0.2851 -0.0153,-0.3357 -0.0082,-0.0382 -0.0212,-0.0641 -0.0382,-0.0782 -0.0171,-0.0147 -0.0406,-0.0217 -0.0706,-0.0217 -0.0323,0 -0.0705,0.0088 -0.1152,0.0258l-0.0259 -0.0623 0.4751 -0.1929 0.0741 0 0 0.3364z"/>
   <path id="_322302448123" class="fil5" d="M193.691 193.014c0.0482,0 0.0894,0.0171 0.1235,0.0506 0.0335,0.0341 0.0506,0.0753 0.0506,0.1235 0,0.0482 -0.0171,0.0893 -0.0506,0.124 -0.0341,0.0341 -0.0753,0.0518 -0.1235,0.0518 -0.0482,0 -0.0893,-0.0177 -0.124,-0.0518 -0.0341,-0.0347 -0.0518,-0.0758 -0.0518,-0.124 0,-0.0482 0.0171,-0.0894 0.0512,-0.1235 0.0335,-0.0335 0.0752,-0.0506 0.1246,-0.0506zm0.1429 0.8249l0 1.2683c0,0.0988 0.0071,0.164 0.0218,0.197 0.0141,0.0329 0.0352,0.057 0.0635,0.0735 0.0282,0.0158 0.0799,0.0241 0.1546,0.0241l0 0.0617 -0.7667 0 0 -0.0617c0.077,0 0.1288,-0.0077 0.1546,-0.023 0.0265,-0.0147 0.0476,-0.0394 0.0629,-0.0741 0.0159,-0.0341 0.0236,-0.0999 0.0236,-0.1975l0 -0.6086c0,-0.1711 -0.0053,-0.2816 -0.0153,-0.3322 -0.0083,-0.037 -0.0212,-0.0623 -0.0382,-0.0764 -0.0171,-0.0147 -0.0406,-0.0217 -0.0706,-0.0217 -0.0323,0 -0.0711,0.0088 -0.117,0.0258l-0.0241 -0.0623 0.4751 -0.1929 0.0758 0z"/>
  </g>
  <rect class="fil6 str3" x="10" y="10" width="199.136" height="189.917"/>
 </g>
</svg>
